<svg xmlns="http://www.w3.org/2000/svg" xmlns:xlink="http://www.w3.org/1999/xlink" width="500" zoomAndPan="magnify" viewBox="0 0 375 374.999991" height="500" preserveAspectRatio="xMidYMid meet" version="1.0"><defs><clipPath id="15e3929576"><path d="M 0 0 L 370.5 0 L 370.5 375 L 0 375 Z M 0 0 " clip-rule="nonzero"/></clipPath></defs><g clip-path="url(#15e3929576)"><path fill="#4e2718" d="M 28.234375 201.703125 C 34.546875 197.441406 40.8125 192.976562 46.875 188.324219 C 44.644531 193.484375 45.820312 199.578125 47.257812 204.878906 C 49.71875 213.941406 52.800781 223.355469 58.214844 231.132812 C 59.355469 232.773438 60.632812 234.300781 61.738281 235.964844 C 62.285156 236.792969 62.675781 237.660156 62.96875 238.59375 C 62.023438 239.605469 61.097656 240.632812 60.164062 241.660156 C 60.046875 241.742188 59.933594 241.828125 59.84375 241.9375 C 59.378906 242.484375 58.898438 243.023438 58.417969 243.566406 C 58.328125 243.671875 58.234375 243.769531 58.144531 243.871094 C 57.023438 245.128906 55.878906 246.375 54.738281 247.621094 C 53.390625 249.0625 52.03125 250.492188 50.667969 251.910156 C 50.570312 252.007812 50.488281 252.117188 50.417969 252.230469 C 47.101562 255.695312 43.675781 259.054688 40.125 262.253906 C 28.449219 247.679688 16.773438 233.105469 5.097656 218.53125 C 12.300781 212.234375 20.320312 207.050781 28.234375 201.703125 Z M 52.152344 187.246094 C 54.832031 184.292969 58.679688 187.457031 60.773438 189.480469 C 61.886719 192.804688 63.441406 195.953125 64.730469 199.222656 C 65.644531 201.546875 69.445312 200.535156 68.515625 198.175781 C 67.136719 194.675781 65.429688 191.316406 64.308594 187.714844 C 64.761719 185.082031 64.710938 181.796875 66.570312 179.902344 C 70.722656 175.6875 75.183594 178.628906 78.464844 181.882812 C 78.480469 181.898438 78.5 181.90625 78.515625 181.917969 C 80.453125 185.472656 82 189.214844 83.730469 192.871094 C 84.8125 195.15625 88.199219 193.164062 87.121094 190.886719 C 85.339844 187.121094 83.753906 183.257812 81.734375 179.609375 C 81.476562 176.488281 82.144531 173.730469 85.171875 172.105469 C 88.332031 170.40625 92.445312 171.734375 94.980469 173.910156 C 97.234375 177.246094 98.515625 181.097656 100.480469 184.597656 C 101.722656 186.804688 105.113281 184.828125 103.871094 182.617188 C 101.949219 179.191406 100.679688 175.429688 98.511719 172.144531 C 98.972656 169.671875 99.824219 167.101562 102.535156 166.472656 C 105.117188 165.875 108.21875 167.796875 110.285156 169.082031 C 117.058594 173.292969 121.574219 180.132812 125.210938 187.050781 C 127.339844 191.109375 129.140625 195.339844 130.964844 199.539062 C 132.851562 203.878906 135.289062 207.992188 137.300781 212.277344 C 139.285156 216.519531 140.859375 220.917969 141.78125 225.511719 C 142.652344 229.859375 142.246094 234.449219 141.914062 238.894531 C 141.703125 238.90625 141.492188 238.914062 141.28125 238.925781 C 131.035156 239.507812 120.113281 241.402344 111.945312 248.097656 C 109.089844 250.4375 106.761719 253.203125 106.347656 256.976562 C 106.019531 259.957031 107.976562 262.402344 110.246094 264.230469 C 107.199219 266.65625 105.253906 270.207031 105.132812 274.238281 C 105.015625 278.164062 107.203125 280.988281 110.207031 282.792969 C 108.847656 283.644531 107.691406 284.628906 106.816406 285.816406 C 105.867188 282.566406 104.730469 279.386719 102.960938 276.402344 C 99.761719 271.003906 94.058594 268.863281 88.289062 267.253906 C 82.199219 265.558594 76.0625 264.496094 70.195312 262.082031 C 64.824219 259.871094 59.296875 257.03125 54.859375 253.1875 C 57.257812 250.660156 59.625 248.113281 61.933594 245.503906 C 62.710938 244.621094 64.246094 244.230469 65.378906 243.292969 C 66.292969 242.53125 66.964844 241.03125 67 239.851562 C 67.097656 236.621094 65.214844 233.976562 63.367188 231.488281 C 60.828125 228.082031 58.707031 224.59375 56.902344 220.738281 C 55.027344 216.730469 53.625 212.507812 52.328125 208.285156 C 51.101562 204.304688 49.621094 200.105469 49.484375 195.917969 C 49.386719 192.917969 50.089844 189.519531 52.152344 187.246094 Z M 67.214844 169.007812 C 72.8125 163.210938 78.234375 157.25 83.078125 150.800781 C 87.539062 144.867188 91.433594 138.28125 93.296875 131.039062 C 95.195312 123.664062 91.839844 116.875 88.605469 110.390625 C 85.664062 104.496094 83.175781 98.742188 81.609375 92.34375 C 80.269531 86.859375 78.875 80.339844 80.648438 74.8125 C 81.59375 71.871094 85.167969 70.632812 86.832031 73.550781 C 88.140625 75.839844 88.65625 79.074219 91.105469 80.535156 C 98.871094 85.152344 101.363281 75.109375 102.65625 69.773438 C 104.070312 63.925781 107.027344 58.457031 110.070312 53.316406 C 112.898438 48.546875 115.96875 43.152344 120.007812 39.308594 C 122.324219 37.097656 125.554688 35.328125 128.820312 35.433594 C 132.742188 35.5625 132.777344 40.605469 132.578125 43.472656 C 130.707031 46.496094 129.277344 49.761719 127.574219 52.882812 C 126.363281 55.105469 129.753906 57.085938 130.964844 54.863281 C 132.746094 51.601562 134.210938 48.179688 136.210938 45.042969 C 137.59375 44.324219 138.914062 43.523438 140.242188 42.707031 C 142.585938 41.277344 144.402344 41.777344 146.789062 42.964844 C 150.46875 44.789062 150.070312 48.785156 149.769531 52.257812 C 148.339844 55.894531 146.511719 59.363281 144.875 62.910156 C 143.828125 65.195312 147.210938 67.1875 148.265625 64.890625 C 150.058594 60.996094 152.046875 57.191406 153.601562 53.191406 C 155.910156 50.84375 158.75 49.59375 161.964844 51.210938 C 165.09375 52.785156 166.464844 56.394531 166.480469 59.703125 C 165.378906 63.613281 163.21875 67.113281 161.777344 70.902344 C 160.875 73.273438 164.675781 74.289062 165.566406 71.945312 C 166.945312 68.320312 168.96875 64.980469 170.105469 61.265625 C 172.132812 60.109375 174.804688 58.9375 176.84375 60.53125 C 178.855469 62.105469 179.472656 65.078125 179.902344 67.441406 C 180.148438 68.789062 180.285156 70.140625 180.324219 71.496094 C 180.28125 71.65625 180.253906 71.832031 180.253906 72.019531 C 180.261719 75.332031 179.808594 78.558594 179.066406 81.730469 C 178.464844 84.113281 177.699219 86.453125 176.859375 88.71875 C 175.128906 93.390625 172.859375 97.863281 170.636719 102.3125 C 168.691406 106.210938 167.144531 110.3125 165.371094 114.289062 C 161.617188 122.695312 157.054688 129.597656 149.679688 135.207031 C 142.898438 140.359375 135.886719 145.136719 130.191406 151.550781 C 125.3125 157.042969 121.472656 163.542969 117.808594 169.988281 C 114.945312 167.234375 111.617188 164.925781 107.59375 163.347656 C 101.5 160.953125 97.042969 164.085938 95.230469 169.371094 C 88.175781 165.488281 79.441406 168.488281 77.976562 176.222656 C 76.957031 175.460938 75.871094 174.789062 74.628906 174.273438 C 71.796875 173.101562 68.707031 174.300781 66.136719 175.515625 C 62.183594 177.378906 61.578125 180.898438 60.941406 184.570312 C 58.847656 183.140625 56.523438 182.199219 54.277344 182.28125 C 58.824219 178.121094 62.957031 173.414062 67.214844 169.007812 Z M 78.882812 70.550781 C 75.699219 69.039062 72.476562 67.617188 69.246094 66.21875 C 59.910156 62.171875 50.523438 58.257812 41.75 53.082031 C 51.082031 36.757812 60.417969 20.4375 69.753906 4.113281 C 72.753906 4.84375 76.566406 7.890625 78.957031 9.402344 C 84.023438 12.605469 88.949219 16.03125 93.855469 19.46875 C 101.828125 25.050781 109.820312 30.667969 118.113281 35.78125 C 117.808594 36.03125 117.511719 36.28125 117.226562 36.53125 C 114.515625 38.949219 112.582031 42.277344 110.566406 45.253906 C 107.660156 49.535156 105.003906 53.980469 102.722656 58.628906 C 101.042969 62.046875 99.613281 65.652344 98.71875 69.359375 C 98.136719 71.757812 97.855469 75.835938 95.679688 77.40625 C 93.296875 79.121094 91.769531 75.019531 91.152344 73.570312 C 90.273438 71.507812 89.242188 69.464844 87.175781 68.390625 C 84.085938 66.777344 80.976562 68.203125 78.882812 70.550781 Z M 184.074219 74.992188 C 189.238281 77.148438 195.179688 78.6875 200.621094 77.691406 C 206.875 76.550781 212.019531 72.179688 216.867188 68.34375 C 221.542969 64.644531 226.265625 61.449219 231.628906 58.839844 C 236.261719 56.582031 242.195312 53.816406 247.621094 53.945312 C 247.484375 55.789062 247.347656 57.628906 247.230469 59.472656 C 247.101562 61.511719 247.277344 63.070312 246.082031 64.738281 C 244.457031 67 245.421875 70.527344 247.230469 72.304688 C 249.328125 74.367188 253.007812 74.402344 255.730469 74.5 C 260.058594 74.65625 264.1875 75.121094 268.414062 76.136719 C 273.050781 77.25 277.558594 78.894531 281.988281 80.652344 C 286.214844 82.324219 290.617188 83.902344 293.976562 87.0625 C 295.859375 88.832031 297.539062 91.273438 297.589844 93.933594 C 297.652344 97.210938 293.34375 98.082031 290.902344 98.480469 C 290.753906 98.503906 290.605469 98.523438 290.457031 98.546875 C 287.078125 97.296875 283.558594 96.554688 280.113281 95.511719 C 277.683594 94.777344 276.652344 98.566406 279.070312 99.296875 C 282.613281 100.367188 286.246094 101.121094 289.714844 102.433594 C 291.863281 104.816406 294.765625 107.113281 294.269531 110.511719 C 293.570312 115.335938 290.359375 116.480469 286.136719 117.046875 C 286.089844 117.019531 286.082031 117.011719 286.136719 117.046875 C 285.980469 117.066406 285.824219 117.089844 285.664062 117.109375 C 285.59375 117.117188 285.535156 117.148438 285.464844 117.160156 C 281.53125 116.46875 277.683594 115.382812 273.792969 114.480469 C 271.328125 113.910156 270.28125 117.695312 272.75 118.265625 C 276.894531 119.226562 280.988281 120.410156 285.195312 121.089844 C 285.859375 121.488281 285.972656 121.515625 286.996094 122.394531 C 288.597656 123.777344 289.328125 125.878906 289.042969 127.953125 C 288.507812 131.828125 284.921875 134.195312 281.398438 135.011719 C 277.480469 134.746094 273.75 133.367188 269.886719 132.742188 C 267.410156 132.339844 266.351562 136.117188 268.84375 136.523438 C 272.796875 137.167969 276.601562 138.460938 280.585938 138.859375 C 289.878906 149.804688 267.28125 152.136719 260.46875 151.699219 C 254.058594 151.285156 247.746094 149.597656 241.554688 147.984375 C 236.148438 146.574219 230.625 145.679688 225.191406 144.382812 C 219.910156 143.125 214.78125 141.386719 210.097656 138.609375 C 205.292969 135.761719 201.25 131.316406 197.070312 127.648438 C 193.269531 124.308594 189.28125 121.199219 184.941406 118.585938 C 180.488281 115.90625 175.523438 113.953125 170.640625 112.101562 C 176.042969 100.179688 183.140625 88.210938 184.074219 74.992188 Z M 251.023438 64.015625 C 251.09375 63.503906 251.101562 62.960938 251.09375 62.433594 C 251.28125 58.230469 251.519531 54.023438 251.84375 49.8125 C 252.964844 35.269531 254.441406 20.757812 255.0625 6.179688 C 271.195312 9.652344 287.332031 13.121094 303.46875 16.59375 C 302.511719 20.421875 302.636719 24.925781 302.304688 28.617188 C 301.609375 36.308594 300.136719 43.707031 298.722656 51.300781 C 296.847656 61.375 294.917969 71.445312 292.984375 81.507812 C 290.949219 80.28125 288.796875 79.277344 286.832031 78.4375 C 278.03125 74.679688 268.808594 71.363281 259.191406 70.675781 C 257.84375 70.582031 253.332031 70.640625 250.816406 69.699219 C 250.875 67.804688 250.945312 65.910156 251.023438 64.015625 Z M 291.085938 214.832031 C 296.09375 218.679688 300.855469 222.433594 305.039062 227.1875 C 308.714844 231.363281 313.359375 236.785156 314.726562 242.484375 C 313.179688 242.707031 311.628906 242.921875 310.082031 243.148438 C 308.429688 243.390625 305.523438 244.4375 303.921875 243.789062 C 301.855469 242.949219 298.742188 244.183594 297.46875 245.871094 C 295.761719 248.132812 296.039062 250.917969 296.449219 253.5625 C 297.027344 257.363281 298.050781 260.945312 298.308594 264.816406 C 298.886719 273.324219 297.644531 281.921875 296.226562 290.28125 C 295.585938 294.082031 293.402344 298.035156 290.171875 300.199219 C 286.265625 302.8125 283.507812 298.472656 282.234375 295.273438 C 282.214844 295.214844 282.171875 295.164062 282.148438 295.109375 C 282.148438 295.101562 282.148438 295.09375 282.152344 295.085938 C 282.59375 291.304688 282.402344 287.507812 282.5625 283.71875 C 282.671875 281.183594 278.742188 281.195312 278.632812 283.71875 C 278.472656 287.507812 278.667969 291.304688 278.222656 295.085938 C 278.210938 295.214844 278.214844 295.335938 278.214844 295.453125 C 276.683594 297.808594 275.257812 300.898438 272.597656 301.679688 C 267.238281 303.25 264.691406 299.414062 263.011719 295.113281 C 263 295.082031 262.976562 295.054688 262.960938 295.023438 C 262.574219 290.796875 262.703125 286.558594 262.605469 282.320312 C 262.546875 279.792969 258.621094 279.785156 258.679688 282.320312 C 258.777344 286.648438 258.636719 290.984375 259.054688 295.296875 C 259.058594 295.367188 259.082031 295.429688 259.089844 295.492188 C 256.578125 303.335938 248.078125 302.042969 244.644531 295.546875 C 244.660156 295.359375 244.660156 295.164062 244.621094 294.953125 C 243.863281 291.046875 244.296875 287.027344 243.941406 283.082031 C 243.71875 280.582031 239.789062 280.558594 240.015625 283.082031 C 240.386719 287.242188 240.039062 291.414062 240.761719 295.542969 C 239.332031 297.648438 237.488281 299.816406 234.664062 299.226562 C 232.695312 298.8125 231.132812 296.914062 229.914062 295.460938 C 226.933594 291.933594 225.148438 287.289062 223.980469 282.886719 C 221.328125 272.894531 222.4375 262.382812 221.894531 252.175781 C 221.363281 242.285156 220.8125 232.171875 225.15625 222.992188 C 228.777344 215.34375 233.136719 208.109375 235.878906 200.066406 C 238.691406 191.792969 239.269531 182.671875 240.375 174.050781 C 241.308594 166.789062 242.417969 159.566406 242.855469 152.265625 C 252.828125 154.640625 262.714844 156.96875 273.097656 154.8125 C 276.042969 154.199219 279.445312 153.140625 282.171875 151.34375 C 281.523438 158.804688 280.921875 166.277344 280.183594 173.734375 C 279.347656 182.148438 277.71875 190.507812 278.964844 198.96875 C 280.007812 206.074219 285.699219 210.695312 291.085938 214.832031 Z M 320.542969 245.589844 C 334.734375 243.585938 348.796875 240.886719 362.898438 238.335938 C 364.011719 258.757812 365.125 279.183594 366.238281 299.609375 C 353.097656 298.882812 339.898438 299.21875 326.746094 298.902344 C 318.882812 298.714844 311.089844 298.292969 303.214844 298.472656 C 301.226562 298.511719 299.242188 298.53125 297.257812 298.511719 C 299.703125 294.238281 300.496094 288.667969 301.117188 284.261719 C 302.347656 275.566406 303.023438 266.59375 301.414062 257.898438 C 301.097656 256.191406 299.382812 251.277344 300.296875 248.882812 C 302.792969 248.441406 305.296875 248.011719 307.796875 247.589844 C 310.308594 247.339844 312.878906 246.808594 315.347656 246.371094 C 317.074219 246.105469 318.804688 245.832031 320.542969 245.589844 Z M 217.960938 252.082031 C 215.050781 251.59375 212.167969 251.023438 209.308594 250.140625 C 204.707031 248.71875 200.339844 246.636719 196.007812 244.566406 C 192.332031 242.8125 188.660156 241.070312 184.890625 239.523438 C 180.570312 237.757812 175.371094 237.484375 170.761719 237.386719 C 166.15625 237.285156 161.542969 237.722656 156.957031 238.117188 C 153.269531 238.429688 149.582031 238.558594 145.890625 238.710938 C 146.210938 233.578125 146.367188 228.453125 145.347656 223.378906 C 143.574219 214.535156 138.789062 206.488281 134.820312 198.503906 C 130.574219 189.96875 126.78125 180.394531 120.644531 173.046875 C 122.960938 169.054688 125.320312 165.09375 127.863281 161.238281 C 133.140625 153.222656 139.878906 147.316406 147.542969 141.65625 C 150.722656 139.304688 153.894531 136.949219 156.9375 134.421875 C 160.101562 131.789062 162.550781 127.945312 164.628906 124.449219 C 166.300781 121.636719 167.738281 118.699219 169.09375 115.714844 C 169.242188 115.769531 169.390625 115.824219 169.539062 115.878906 C 178.828125 119.460938 186.765625 123.890625 194.289062 130.425781 C 196.199219 132.082031 198.058594 133.78125 199.9375 135.4375 C 200.359375 135.8125 200.777344 136.1875 201.195312 136.554688 C 202.570312 137.765625 203.957031 138.875 205.367188 139.90625 C 208.058594 141.921875 210.914062 143.707031 214.148438 145.015625 C 214.4375 145.132812 214.734375 145.226562 215.027344 145.339844 C 215.378906 145.484375 215.730469 145.636719 216.097656 145.773438 C 221.949219 147.996094 228.183594 149.09375 234.292969 150.328125 C 235.636719 150.597656 236.976562 150.894531 238.308594 151.203125 C 238.539062 151.257812 238.773438 151.3125 239.003906 151.371094 C 238.65625 159.703125 237.230469 167.996094 236.164062 176.253906 C 234.992188 185.335938 234.03125 194.414062 230.628906 202.988281 C 227.433594 211.03125 222.167969 218.242188 219.527344 226.5 C 216.90625 234.679688 217.507812 243.640625 217.960938 252.082031 Z M 216.925781 296.992188 C 208.816406 296.867188 203.628906 300.765625 198.871094 306.929688 C 194.484375 312.59375 190.726562 318.503906 185.542969 323.503906 C 181.671875 327.242188 177.304688 330.992188 172.390625 333.355469 C 171.195312 330.34375 170.011719 327.324219 168.875 324.292969 C 167.984375 321.910156 168.0625 318.375 165.414062 317.046875 C 163.078125 315.875 160.753906 316.0625 158.238281 316.519531 C 154.414062 317.210938 150.839844 318.402344 146.933594 318.796875 C 138.453125 319.652344 129.792969 318.707031 121.386719 317.554688 C 117.417969 317.015625 113.179688 314.851562 110.984375 311.429688 C 108.566406 307.667969 113.019531 305.023438 115.980469 303.6875 C 119.566406 303.929688 123.148438 303.664062 126.738281 303.699219 C 129.273438 303.722656 129.269531 299.796875 126.738281 299.773438 C 123.054688 299.738281 119.382812 300.027344 115.703125 299.75 C 112.972656 297.953125 109.417969 296.796875 108.964844 293.183594 C 108.3125 288.035156 111.5 286.179688 115.675781 284.402344 C 119.597656 283.980469 123.546875 283.941406 127.488281 283.71875 C 130.003906 283.578125 130.015625 279.652344 127.488281 279.792969 C 123.253906 280.03125 119.003906 280.042969 114.792969 280.566406 C 111.65625 279.585938 109.195312 277.84375 109.058594 274.238281 C 108.925781 270.691406 111.5 267.738281 114.445312 266.148438 C 118.28125 265.3125 122.238281 265.578125 126.121094 265.097656 C 128.597656 264.792969 128.628906 260.863281 126.121094 261.171875 C 122.132812 261.664062 118.105469 261.480469 114.15625 262.21875 C 111.175781 260.277344 109.179688 257.851562 111.320312 254.347656 C 113.21875 251.246094 116.949219 249.183594 120.082031 247.566406 C 128.808594 243.042969 139.257812 242.816406 148.863281 242.539062 C 158.671875 242.257812 168.480469 240.386719 178.28125 241.917969 C 187.066406 243.292969 195.042969 248.722656 203.1875 252.078125 C 207.988281 254.054688 213.019531 255.269531 218.117188 256.167969 C 218.328125 263.867188 218.101562 271.550781 219.238281 279.214844 C 220.222656 285.855469 222.652344 292.523438 226.851562 297.835938 C 223.546875 297.566406 220.246094 297.046875 216.925781 296.992188 Z M 175.300781 351.320312 C 176.71875 354.960938 178.257812 358.542969 180.140625 361.953125 C 165.664062 364.882812 151.1875 367.816406 136.707031 370.746094 C 134.484375 367.054688 133.195312 362.585938 131.765625 358.605469 C 130.097656 353.972656 128.589844 349.285156 126.804688 344.691406 C 125.203125 340.566406 123.414062 336.492188 122.078125 332.269531 C 120.914062 328.582031 120.265625 324.753906 119.300781 321.015625 C 122.253906 321.683594 125.296875 322 127.96875 322.289062 C 136.769531 323.246094 146.03125 323.636719 154.6875 321.464844 C 156.648438 320.976562 158.574219 320.347656 160.585938 320.089844 C 161.488281 319.972656 162.546875 319.953125 163.363281 320.449219 C 163.664062 321.335938 163.960938 322.226562 164.273438 323.109375 C 164.292969 323.167969 164.320312 323.226562 164.339844 323.285156 C 164.339844 323.289062 164.339844 323.292969 164.339844 323.292969 C 164.359375 323.34375 164.378906 323.390625 164.398438 323.441406 C 167.738281 332.839844 171.6875 342.027344 175.300781 351.320312 Z M 1.011719 219.671875 C 13.515625 235.277344 26.015625 250.886719 38.519531 266.492188 C 39.222656 267.367188 40.5625 267.136719 41.296875 266.492188 C 45.082031 263.183594 48.667969 259.667969 52.167969 256.0625 C 60.632812 263.507812 71.957031 267.375 82.71875 269.90625 C 89.390625 271.476562 96.328125 272.917969 100.054688 279.195312 C 103.847656 285.59375 104.515625 293.527344 106.972656 300.453125 C 107.433594 301.757812 107.945312 303.042969 108.46875 304.316406 C 106.457031 306.75 105.746094 309.835938 107.59375 313.414062 C 109.15625 316.433594 111.757812 318.335938 114.769531 319.597656 C 115.132812 320.683594 115.472656 321.773438 115.769531 322.882812 C 116.886719 327.121094 117.589844 331.425781 119.046875 335.574219 C 120.519531 339.769531 122.308594 343.851562 123.894531 348.003906 C 125.546875 352.335938 126.933594 356.773438 128.511719 361.132812 C 130.046875 365.363281 131.472656 370.199219 134.082031 373.925781 C 134.617188 374.691406 135.367188 375.011719 136.296875 374.824219 C 152.101562 371.625 167.910156 368.425781 183.714844 365.226562 C 184.539062 365.0625 184.96875 364.527344 185.089844 363.914062 C 185.261719 363.449219 185.234375 362.90625 184.890625 362.34375 C 180.054688 354.550781 177.113281 345.546875 173.804688 336.972656 C 179.644531 334.164062 184.730469 329.8125 189.316406 325.308594 C 194.441406 320.277344 198.074219 314.183594 202.515625 308.59375 C 204.691406 305.855469 207.304688 302.890625 210.703125 301.730469 C 215.535156 300.089844 221.136719 301.09375 226.070312 301.660156 C 227.746094 301.851562 229.40625 301.886719 231.066406 301.84375 C 232.746094 302.863281 234.664062 303.421875 236.679688 303.214844 C 238.285156 303.054688 239.660156 302.324219 240.855469 301.332031 C 241.925781 301.308594 242.996094 301.3125 244.066406 301.34375 C 246.402344 303.601562 249.441406 304.988281 252.894531 305.066406 C 256.109375 305.140625 258.644531 303.566406 260.449219 301.285156 C 260.878906 301.253906 261.3125 301.230469 261.742188 301.199219 C 263.636719 303.980469 266.226562 305.757812 270.449219 305.796875 C 275.019531 305.832031 277.074219 303.632812 279.132812 300.78125 C 279.75 300.820312 280.367188 300.875 280.988281 300.933594 C 283.4375 304.175781 286.917969 305.972656 291.488281 303.957031 C 292.550781 303.488281 293.476562 302.871094 294.304688 302.160156 C 300.46875 302.394531 306.621094 302.222656 312.890625 302.269531 C 319.785156 302.324219 326.683594 302.851562 333.585938 302.957031 C 341.144531 303.070312 348.707031 303.105469 356.265625 303.234375 C 360.28125 303.304688 364.304688 303.386719 368.316406 303.644531 C 368.980469 303.6875 369.46875 303.441406 369.78125 303.058594 C 370.109375 302.746094 370.3125 302.289062 370.28125 301.683594 C 369.085938 279.792969 367.894531 257.90625 366.699219 236.015625 C 366.625 234.664062 365.507812 233.890625 364.214844 234.125 C 349 236.851562 333.835938 239.628906 318.546875 241.898438 C 317.171875 236.238281 313.414062 231.269531 309.832031 226.804688 C 305.789062 221.773438 301.175781 217.605469 296.042969 213.710938 C 293.015625 211.410156 289.988281 209.121094 287.28125 206.445312 C 284.105469 203.304688 282.859375 199.945312 282.488281 195.535156 C 281.765625 187.011719 283.886719 178.484375 284.414062 170.007812 C 284.894531 162.304688 285.507812 154.589844 286.28125 146.894531 C 287.078125 145.296875 287.15625 143.675781 286.796875 142.113281 C 286.996094 140.3125 287.199219 138.507812 287.417969 136.707031 C 287.492188 136.65625 287.5625 136.597656 287.640625 136.542969 C 287.933594 136.339844 288.222656 136.125 288.496094 135.902344 C 288.628906 135.796875 288.75 135.683594 288.875 135.574219 C 290.539062 134.121094 291.824219 132.277344 292.503906 130.117188 C 292.554688 129.976562 292.625 129.84375 292.667969 129.703125 C 293.316406 127.628906 293.167969 125.644531 292.488281 123.847656 C 292.441406 123.726562 292.390625 123.601562 292.339844 123.476562 C 292.324219 123.425781 292.300781 123.375 292.28125 123.324219 C 292.011719 122.660156 291.679688 122.011719 291.285156 121.390625 C 291.011719 120.964844 290.683594 120.566406 290.335938 120.191406 C 293.421875 119.339844 296.105469 117.742188 297.296875 114.296875 C 297.351562 114.140625 297.402344 113.976562 297.453125 113.816406 C 297.496094 113.710938 297.539062 113.613281 297.578125 113.503906 C 298.136719 111.902344 298.445312 110.035156 298.226562 108.285156 C 298.21875 108.21875 298.214844 108.160156 298.203125 108.097656 C 298.167969 107.839844 298.109375 107.582031 298.046875 107.324219 C 298.03125 107.253906 298.015625 107.175781 297.996094 107.105469 C 297.902344 106.785156 297.792969 106.464844 297.65625 106.164062 C 296.875 104.453125 295.570312 103.089844 294.277344 101.726562 C 294.589844 101.632812 294.894531 101.53125 295.195312 101.417969 C 295.457031 101.324219 295.707031 101.21875 295.957031 101.109375 C 298.882812 99.890625 301.164062 97.789062 301.507812 94.097656 C 301.65625 92.519531 301.300781 90.988281 300.640625 89.542969 C 299.777344 87.386719 298.304688 85.570312 296.515625 84.03125 C 298.964844 70.953125 301.355469 57.867188 304 44.828125 C 305.089844 39.425781 305.738281 34.09375 306.230469 28.617188 C 306.457031 26.089844 306.683594 23.566406 306.949219 21.050781 C 307.101562 19.609375 307.167969 17.222656 307.65625 16.117188 C 308.140625 15.03125 307.835938 13.523438 306.484375 13.230469 C 288.898438 9.449219 271.3125 5.667969 253.730469 1.886719 C 252.453125 1.609375 251.285156 2.453125 251.242188 3.777344 C 250.6875 19.230469 249.113281 34.617188 247.917969 50.027344 C 242.554688 49.777344 236.917969 52.15625 232.085938 54.316406 C 228.445312 55.90625 224.875 57.757812 221.566406 59.914062 C 217.5 62.570312 213.871094 65.816406 209.964844 68.695312 C 209.65625 68.925781 209.335938 69.148438 209.015625 69.375 C 208.6875 69.613281 208.351562 69.851562 208.015625 70.078125 C 207.214844 70.621094 206.398438 71.148438 205.5625 71.640625 C 205.089844 71.917969 204.621094 72.164062 204.148438 72.386719 C 203.9375 72.484375 203.722656 72.5625 203.515625 72.648438 C 203.277344 72.746094 203.042969 72.851562 202.804688 72.933594 C 202.453125 73.058594 202.097656 73.167969 201.742188 73.265625 C 201.636719 73.296875 201.53125 73.328125 201.425781 73.359375 C 201.070312 73.449219 200.71875 73.519531 200.359375 73.589844 C 200.21875 73.617188 200.078125 73.648438 199.9375 73.667969 C 199.65625 73.714844 199.371094 73.75 199.09375 73.785156 C 198.804688 73.816406 198.519531 73.84375 198.226562 73.863281 C 198.101562 73.871094 197.976562 73.878906 197.847656 73.882812 C 197.089844 73.914062 196.332031 73.902344 195.554688 73.855469 L 195.550781 73.855469 C 194.816406 73.8125 194.082031 73.734375 193.347656 73.621094 C 193.226562 73.605469 193.105469 73.589844 192.984375 73.570312 C 192.746094 73.53125 192.511719 73.488281 192.273438 73.441406 C 191.804688 73.351562 191.335938 73.253906 190.871094 73.140625 C 188.558594 72.574219 186.289062 71.734375 184.152344 70.761719 C 184.09375 69.53125 183.988281 68.292969 183.792969 67.054688 C 183.234375 63.492188 182.046875 59.246094 178.832031 57.144531 C 176.054688 55.328125 172.972656 55.703125 170.136719 56.894531 C 169.4375 53.160156 167.339844 49.875 163.945312 47.824219 C 160.570312 45.777344 156.863281 46.285156 153.773438 48.109375 C 153.527344 44.644531 152.296875 41.671875 148.773438 39.574219 C 146.476562 38.210938 143.992188 37.59375 141.363281 37.984375 C 139.664062 38.234375 138.042969 39.238281 136.480469 40.253906 C 136.136719 36.402344 134.539062 32.785156 130.324219 31.714844 C 127.390625 30.96875 124.339844 31.859375 121.640625 33.359375 C 111.996094 27.519531 102.808594 20.925781 93.566406 14.488281 C 88.683594 11.089844 83.761719 7.730469 78.691406 4.609375 C 75.84375 2.859375 72.195312 0.164062 68.707031 0.0273438 C 68.027344 0 67.34375 0.417969 67.011719 1 C 57.136719 18.265625 47.261719 35.53125 37.386719 52.796875 C 37.046875 53.390625 37.054688 53.960938 37.253906 54.445312 C 37.382812 54.839844 37.644531 55.207031 38.089844 55.480469 C 50.324219 63.003906 63.863281 67.890625 76.796875 74.019531 C 76.761719 74.117188 76.71875 74.214844 76.6875 74.3125 C 74.976562 79.640625 76.25 86.035156 77.359375 91.351562 C 78.554688 97.074219 80.394531 102.566406 82.941406 107.828125 C 85.5625 113.246094 88.734375 118.523438 89.890625 124.5 C 90.886719 129.667969 87.8125 135.652344 85.429688 140.039062 C 79.785156 150.421875 71.289062 159.15625 63.132812 167.585938 C 59.429688 171.40625 55.828125 175.378906 51.992188 179.066406 C 47.121094 183.742188 41.363281 187.433594 35.941406 191.425781 C 24.34375 199.964844 11.714844 207.191406 1.011719 216.898438 C 0.183594 217.644531 0.261719 218.601562 0.761719 219.292969 C 0.832031 219.421875 0.910156 219.546875 1.011719 219.671875 " fill-opacity="1" fill-rule="nonzero"/></g></svg>