<svg xmlns="http://www.w3.org/2000/svg" xmlns:xlink="http://www.w3.org/1999/xlink" width="500" zoomAndPan="magnify" viewBox="0 0 375 374.999991" height="500" preserveAspectRatio="xMidYMid meet" version="1.0"><path fill="#4e2718" d="M 366.585938 112.570312 C 357.871094 109.9375 348.039062 110.75 338.007812 113.785156 C 327.769531 116.925781 317.230469 122.394531 307.398438 129.074219 C 307.398438 128.972656 307.398438 128.972656 307.398438 128.875 C 307.703125 127.558594 307.90625 126.140625 308.210938 124.519531 C 310.84375 107.609375 312.464844 93.433594 312.363281 84.21875 C 312.160156 73.183594 309.628906 68.625 303.445312 73.386719 C 301.316406 75.003906 298.886719 77.132812 296.25 79.664062 C 289.863281 56.980469 276.285156 37.238281 258.039062 23.0625 C 239.59375 8.683594 216.386719 0.175781 191.351562 0.175781 C 161.351562 0.175781 134.085938 12.429688 114.324219 32.175781 C 94.5625 51.917969 82.296875 79.15625 82.296875 109.128906 L 82.296875 230.128906 C 80.167969 227.191406 77.835938 224.15625 75.507812 221.21875 C 74.898438 220.40625 74.1875 219.597656 73.582031 218.890625 C 69.527344 214.027344 65.574219 209.574219 62.535156 206.738281 C 57.363281 201.980469 54.628906 205.828125 53.613281 215.546875 C 52.804688 223.546875 53.109375 236 54.019531 250.886719 C 54.121094 252.203125 54.222656 253.316406 54.324219 254.429688 C 46.417969 247.949219 37.804688 242.480469 29.289062 239.039062 C 20.777344 235.597656 12.261719 234.078125 4.460938 235.699219 C 1.011719 236.40625 0 238.332031 0.507812 241.265625 C 1.824219 247.542969 13.480469 258.984375 24.933594 270.125 C 29.492188 274.578125 33.953125 278.933594 37.703125 282.882812 C 35.167969 283.289062 33.75 284.097656 33.039062 285.617188 L 32.9375 285.921875 C 32.835938 286.121094 32.835938 286.324219 32.835938 286.628906 C 32.835938 286.730469 32.835938 286.832031 32.9375 287.035156 C 33.445312 289.363281 38.3125 295.4375 45 302.019531 C 45 302.019531 45.101562 302.019531 45.101562 302.121094 C 45.710938 302.730469 46.417969 303.4375 47.128906 304.046875 C 55.136719 311.640625 65.167969 319.738281 73.582031 323.6875 C 77.128906 325.410156 80.371094 326.320312 83.210938 326.21875 C 90.609375 326.015625 95.878906 325.410156 99.730469 324.5 C 109.5625 339.585938 123.140625 352.34375 139.054688 361.152344 C 154.664062 369.859375 172.601562 374.824219 191.453125 374.824219 C 221.453125 374.824219 248.714844 362.570312 268.480469 342.824219 C 288.242188 323.082031 300.507812 295.84375 300.507812 265.871094 L 300.507812 193.273438 C 304.054688 190.839844 307.601562 188.207031 310.84375 185.675781 C 311.65625 185.070312 312.464844 184.359375 313.277344 183.753906 C 313.378906 183.753906 313.378906 183.652344 313.480469 183.652344 C 313.480469 183.652344 313.582031 183.550781 313.582031 183.550781 C 322.09375 176.5625 328.277344 170.085938 328.886719 167.753906 L 328.886719 167.550781 C 328.886719 167.25 328.886719 166.945312 328.785156 166.742188 L 328.785156 166.539062 C 328.175781 164.71875 326.453125 163.703125 323.414062 162.996094 C 328.175781 158.742188 333.953125 154.085938 339.628906 149.429688 C 353.917969 137.785156 368.414062 126.039062 370.539062 119.050781 C 371.25 115.914062 370.238281 113.683594 366.585938 112.570312 Z M 338.816406 116.722656 C 348.242188 113.886719 357.464844 113.078125 365.472656 115.507812 C 364.460938 116.519531 363.140625 117.632812 361.519531 118.847656 C 358.886719 120.875 355.335938 123.203125 350.574219 125.9375 C 338.511719 132.921875 331.214844 137.785156 325.136719 141.933594 C 319.15625 145.984375 314.289062 149.226562 307.09375 153.074219 C 304.863281 154.1875 302.738281 155.503906 300.609375 156.820312 C 298.683594 158.035156 296.859375 159.351562 295.035156 160.667969 C 294.425781 160.667969 293.714844 160.566406 293.109375 160.566406 C 286.824219 160.160156 281.25 160.464844 276.285156 161.375 C 279.933594 157.226562 284.1875 152.566406 289.054688 148.011719 C 294.121094 143.148438 299.796875 138.289062 305.777344 134.039062 C 316.316406 126.339844 327.769531 120.0625 338.816406 116.722656 Z M 305.371094 75.816406 C 308.109375 73.6875 309.222656 77.132812 309.324219 84.320312 C 309.425781 93.332031 307.804688 107.304688 305.167969 124.113281 C 304.964844 125.632812 304.664062 126.949219 304.460938 128.367188 C 304.257812 129.480469 303.953125 130.59375 303.648438 131.808594 C 297.667969 136.164062 292.09375 140.921875 287.027344 145.679688 C 280.84375 151.554688 275.472656 157.425781 271.316406 162.386719 C 270.609375 162.589844 269.796875 162.792969 269.085938 163.097656 C 273.242188 155.605469 272.535156 146.898438 271.722656 138.695312 C 271.417969 135.050781 271.113281 131.503906 271.316406 128.265625 C 271.519531 124.621094 273.851562 119.050781 276.789062 113.078125 C 282.566406 101.738281 290.777344 89.484375 291.6875 88.167969 C 296.757812 83.207031 301.722656 78.652344 305.371094 75.816406 Z M 255.710938 190.941406 C 258.140625 191.753906 261.082031 191.957031 264.730469 191.246094 C 268.378906 190.539062 271.214844 190.03125 273.546875 189.625 C 285.507812 187.296875 288.140625 186.792969 293.007812 187.90625 C 295.945312 188.511719 299.390625 188.511719 302.738281 187.90625 C 301.214844 189.019531 299.59375 190.132812 297.972656 191.246094 C 290.980469 196.003906 283.683594 200.15625 277.398438 202.484375 C 273.648438 203.902344 270.304688 204.511719 267.667969 204.308594 C 261.585938 203.597656 256.925781 202.789062 253.175781 201.777344 C 250.035156 200.96875 247.601562 200.054688 245.777344 199.042969 L 245.777344 192.5625 C 246.082031 192.359375 246.386719 192.15625 246.6875 191.957031 C 247.195312 191.550781 247.804688 191.042969 248.3125 190.4375 C 249.019531 189.625 249.832031 188.816406 250.539062 187.804688 C 251.859375 189.121094 253.582031 190.234375 255.710938 190.941406 Z M 150.304688 170.488281 L 162.363281 170.488281 C 163.175781 170.488281 163.886719 169.78125 163.886719 168.96875 C 163.886719 168.160156 163.175781 167.453125 162.363281 167.453125 L 157.296875 167.453125 C 158.3125 166.539062 159.222656 165.425781 160.035156 164.210938 C 162.0625 160.871094 163.582031 156.210938 164.390625 150.238281 L 218.414062 150.238281 C 219.222656 156.210938 220.640625 160.871094 222.769531 164.210938 C 223.480469 165.425781 224.390625 166.4375 225.304688 167.25 C 225.304688 167.25 225.40625 167.351562 225.40625 167.351562 C 225.40625 167.351562 225.507812 167.453125 225.507812 167.453125 L 206.859375 167.453125 C 206.046875 167.453125 205.335938 168.160156 205.335938 168.96875 C 205.335938 169.78125 206.046875 170.488281 206.859375 170.488281 L 232.5 170.488281 C 234.324219 170.488281 235.945312 170.996094 237.464844 171.703125 C 238.378906 172.210938 239.1875 172.816406 239.898438 173.527344 C 241.824219 175.449219 242.9375 177.980469 242.9375 180.917969 L 242.9375 317.511719 C 242.9375 320.347656 241.722656 322.980469 239.898438 324.902344 C 237.972656 326.828125 235.4375 327.941406 232.5 327.941406 L 150.304688 327.941406 C 147.464844 327.941406 144.832031 326.726562 142.90625 324.902344 C 140.980469 323.082031 139.863281 320.449219 139.863281 317.511719 L 139.863281 180.917969 C 139.863281 178.082031 140.980469 175.550781 142.804688 173.628906 L 142.90625 173.527344 C 144.832031 171.703125 147.464844 170.488281 150.304688 170.488281 Z M 165.507812 69.640625 C 164.1875 64.574219 162.164062 60.019531 159.527344 55.96875 C 158.714844 54.652344 158.210938 53.4375 158.007812 52.324219 C 157.804688 51.3125 157.804688 50.398438 158.109375 49.589844 C 158.917969 47.363281 162.261719 46.351562 166.824219 46.046875 C 173.613281 45.640625 182.636719 47.058594 190.136719 48.578125 C 208.378906 52.425781 210.203125 61.4375 213.851562 78.246094 C 214.257812 80.167969 214.664062 82.09375 215.167969 84.21875 C 214.761719 84.117188 214.359375 84.015625 213.851562 83.914062 C 208.074219 82.902344 200.167969 82.195312 191.453125 82.195312 C 182.738281 82.195312 174.832031 82.800781 169.054688 83.914062 C 168.445312 84.015625 167.9375 84.117188 167.332031 84.21875 C 167.230469 78.953125 166.621094 74.09375 165.507812 69.640625 Z M 165.710938 87.664062 C 165.914062 87.664062 166.113281 87.5625 166.316406 87.5625 C 167.230469 87.359375 168.242188 87.15625 169.460938 86.953125 C 175.035156 85.941406 182.738281 85.332031 191.351562 85.332031 C 199.964844 85.332031 207.667969 85.941406 213.242188 86.953125 C 214.460938 87.15625 215.472656 87.359375 216.488281 87.5625 C 216.6875 87.664062 216.992188 87.761719 217.195312 87.761719 C 219.730469 88.371094 221.148438 88.976562 221.148438 89.484375 L 221.148438 147.097656 L 217.195312 147.097656 L 217.195312 98.800781 C 217.195312 97.992188 216.488281 97.28125 215.675781 97.28125 C 214.863281 97.28125 214.15625 97.992188 214.15625 98.800781 L 214.15625 147.097656 L 161.65625 147.097656 L 161.65625 89.382812 C 161.554688 88.878906 163.074219 88.371094 165.710938 87.664062 Z M 239.796875 108.621094 C 241.925781 113.078125 243.445312 116.824219 241.113281 129.785156 C 240.507812 133.226562 239.492188 136.972656 238.378906 140.820312 C 235.945312 149.628906 233.3125 159.148438 234.832031 167.652344 C 234.832031 167.652344 234.730469 167.652344 234.730469 167.652344 C 234.425781 167.550781 234.019531 167.550781 233.714844 167.453125 C 233.613281 167.453125 233.511719 167.453125 233.3125 167.453125 C 233.007812 167.453125 232.703125 167.453125 232.398438 167.453125 C 232.296875 167.453125 232.195312 167.453125 232.195312 167.453125 C 231.890625 167.453125 231.488281 167.351562 231.183594 167.25 C 231.082031 167.25 230.878906 167.148438 230.777344 167.148438 C 230.574219 167.046875 230.269531 166.945312 230.066406 166.84375 C 229.863281 166.742188 229.761719 166.742188 229.5625 166.640625 C 229.460938 166.539062 229.359375 166.539062 229.257812 166.4375 C 229.054688 166.335938 228.851562 166.238281 228.648438 166.035156 C 228.546875 165.933594 228.445312 165.933594 228.34375 165.832031 C 228.242188 165.730469 228.039062 165.628906 227.9375 165.527344 C 228.140625 161.273438 229.054688 156.617188 230.269531 151.148438 L 230.574219 149.628906 C 231.585938 145.074219 232.90625 140.417969 234.222656 135.554688 C 236.757812 126.242188 239.390625 116.824219 239.796875 108.621094 Z M 246.183594 188.207031 L 245.878906 188.511719 L 245.878906 182.132812 C 247.09375 182.4375 248.414062 182.539062 249.730469 182.4375 C 250.035156 182.4375 250.335938 182.335938 250.742188 182.234375 C 249.121094 184.765625 247.601562 186.792969 246.183594 188.207031 Z M 253.277344 177.878906 C 251.960938 178.792969 250.640625 179.195312 249.425781 179.296875 C 248.109375 179.398438 246.890625 179.195312 245.777344 178.792969 C 245.371094 175.855469 243.953125 173.324219 241.925781 171.300781 C 241.011719 170.386719 240 169.578125 238.785156 168.96875 C 238.582031 168.867188 238.378906 168.769531 238.277344 168.667969 C 236.25 160.363281 238.988281 150.542969 241.417969 141.53125 C 242.535156 137.582031 243.546875 133.734375 244.15625 130.1875 C 246.6875 115.914062 244.761719 111.964844 242.332031 106.800781 C 241.113281 104.269531 239.796875 101.433594 238.785156 96.675781 C 238.785156 95.964844 238.785156 95.359375 238.785156 94.648438 C 238.785156 93.230469 238.988281 91.710938 239.289062 90.292969 C 239.390625 89.890625 239.492188 89.382812 239.59375 88.976562 C 239.695312 88.574219 239.796875 88.269531 240 87.863281 L 240 87.761719 C 240.710938 85.941406 241.824219 84.523438 242.9375 83.613281 C 243.242188 83.410156 243.546875 83.207031 243.851562 83.003906 C 243.75 84.117188 243.546875 85.839844 243.648438 87.964844 C 243.648438 87.964844 243.648438 87.964844 243.648438 88.066406 C 243.648438 89.6875 243.851562 91.609375 244.257812 93.738281 C 244.5625 95.359375 244.964844 97.078125 245.574219 99.105469 C 246.183594 101.027344 246.890625 103.152344 247.804688 105.484375 C 249.425781 109.535156 251.554688 115.304688 253.582031 121.886719 C 255 126.644531 256.417969 131.910156 257.535156 137.175781 C 258.953125 144.0625 259.761719 151.148438 259.5625 157.628906 C 259.359375 162.996094 258.445312 167.957031 256.417969 172.109375 C 255.203125 174.234375 254.1875 176.160156 253.277344 177.878906 Z M 244.15625 82.902344 C 244.257812 83.003906 244.257812 83.003906 244.15625 82.902344 Z M 258.953125 130.695312 C 258.140625 127.355469 257.230469 124.113281 256.316406 121.078125 C 254.289062 114.394531 252.0625 108.519531 250.4375 104.46875 C 249.527344 102.242188 248.917969 100.21875 248.3125 98.394531 C 247.804688 96.574219 247.398438 94.851562 247.09375 93.332031 C 246.789062 91.511719 246.585938 89.789062 246.585938 88.269531 C 247.296875 86.144531 248.007812 84.320312 248.511719 82.800781 C 249.121094 81.082031 249.628906 79.5625 249.933594 78.550781 C 250.335938 77.132812 251.25 72.574219 252.363281 67.105469 C 254.289062 57.589844 256.722656 45.335938 257.433594 44.527344 C 257.433594 44.425781 257.433594 44.933594 257.9375 45.945312 C 259.15625 48.476562 260.574219 53.742188 262.5 63.359375 C 265.238281 77.941406 261.082031 114.089844 258.953125 130.695312 Z M 260.878906 139.503906 C 261.082031 138.1875 262.09375 131.304688 263.109375 121.988281 C 264.730469 119.863281 266.25 118.039062 267.667969 116.214844 C 269.492188 113.886719 271.316406 111.558594 273.34375 109.027344 L 273.445312 108.925781 C 275.371094 106.394531 277.804688 103.457031 280.539062 100.320312 C 278.414062 103.964844 276.183594 107.914062 274.15625 111.761719 C 271.011719 117.9375 268.582031 124.011719 268.277344 128.164062 C 268.074219 131.605469 268.378906 135.253906 268.683594 139 C 269.492188 148.011719 270.304688 157.628906 264.019531 165.019531 C 263.109375 165.425781 262.195312 165.832031 261.386719 166.238281 C 261.890625 163.605469 262.195312 160.871094 262.296875 158.035156 C 262.601562 151.960938 261.992188 145.679688 260.878906 139.503906 Z M 99.019531 201.371094 C 101.351562 193.171875 103.074219 188.816406 104.289062 186.691406 C 104.695312 186.082031 104.390625 185.375 104.492188 185.574219 C 105.101562 186.285156 106.214844 197.121094 107.128906 205.523438 C 107.636719 210.28125 108.039062 214.332031 108.34375 215.648438 C 108.546875 216.761719 108.851562 217.976562 109.15625 219.394531 C 109.460938 220.609375 109.863281 222.332031 110.371094 224.253906 C 110.269531 225.472656 109.964844 226.886719 109.5625 228.507812 C 109.15625 229.824219 108.75 231.242188 108.140625 232.761719 C 107.535156 234.382812 106.722656 236.101562 105.8125 237.925781 C 104.085938 241.367188 101.757812 246.226562 99.425781 251.898438 C 98.511719 254.226562 97.601562 256.554688 96.6875 259.085938 C 96.585938 256.960938 96.488281 254.53125 96.488281 251.898438 C 95.980469 235.796875 95.980469 211.800781 99.019531 201.371094 Z M 113.613281 220.40625 C 113.714844 220.507812 113.816406 220.609375 114.019531 220.710938 C 114.832031 221.523438 115.742188 222.839844 116.148438 224.558594 C 116.25 224.863281 116.351562 225.167969 116.351562 225.570312 L 116.351562 225.671875 C 116.453125 226.078125 116.453125 226.484375 116.554688 226.785156 C 116.65625 228.003906 116.65625 229.320312 116.65625 230.535156 C 116.65625 231.140625 116.554688 231.75 116.453125 232.253906 C 115.238281 236.304688 113.816406 238.632812 112.601562 240.660156 C 110.066406 244.910156 108.039062 248.253906 109.15625 261.011719 C 109.460938 264.050781 110.066406 267.492188 110.675781 271.035156 C 112.601562 281.566406 114.730469 293.414062 107.636719 300.804688 C 106.417969 302.019531 104.59375 302.929688 102.566406 303.03125 C 101.046875 303.132812 99.324219 302.628906 97.804688 301.414062 C 97.09375 299.792969 96.386719 298.171875 95.675781 296.25 C 94.257812 292.601562 93.851562 288.148438 94.054688 283.488281 C 94.359375 277.820312 95.675781 271.84375 97.5 265.972656 C 98.816406 261.417969 100.539062 257.0625 102.164062 253.011719 C 104.390625 247.542969 106.722656 242.683594 108.445312 239.242188 C 109.460938 237.316406 110.269531 235.496094 110.878906 233.875 C 111.488281 232.253906 111.992188 230.734375 112.398438 229.320312 C 112.90625 227.496094 113.210938 225.875 113.3125 224.457031 C 113.3125 224.457031 113.3125 224.355469 113.3125 224.355469 C 113.613281 222.738281 113.613281 221.320312 113.613281 220.40625 Z M 107.433594 313.765625 C 106.011719 313.765625 104.59375 312.855469 103.175781 311.03125 C 102.164062 309.714844 101.046875 307.992188 99.933594 305.867188 C 100.84375 306.070312 101.757812 306.171875 102.667969 306.171875 C 105.507812 306.070312 108.140625 304.753906 109.863281 303.03125 C 118.074219 294.425781 115.742188 281.871094 113.714844 270.53125 C 113.109375 267.085938 112.5 263.746094 112.195312 260.707031 C 111.285156 250.074219 112.703125 246.632812 114.628906 243.292969 C 114.425781 250.277344 115.945312 258.378906 117.363281 266.378906 C 118.175781 270.628906 118.886719 274.882812 119.390625 278.832031 L 119.59375 280.148438 C 121.113281 292.402344 122.027344 299.285156 112.195312 310.726562 C 110.472656 312.753906 108.851562 313.765625 107.433594 313.765625 Z M 93.851562 267.59375 C 92.433594 272.859375 91.316406 278.324219 91.011719 283.390625 C 90.914062 285.71875 90.914062 288.046875 91.113281 290.273438 C 90.507812 289.96875 89.898438 289.566406 89.289062 289.261719 C 84.527344 282.476562 86.046875 274.175781 87.363281 266.480469 C 87.972656 263.238281 88.480469 260.101562 88.582031 257.0625 C 88.683594 253.417969 87.0625 247.949219 84.832031 242.277344 C 83.714844 239.445312 82.398438 236.507812 81.082031 233.773438 C 81.585938 234.382812 81.992188 235.089844 82.398438 235.699219 C 83.511719 237.214844 84.425781 238.734375 85.335938 240.050781 C 86.859375 242.480469 88.277344 244.710938 89.695312 246.835938 C 90.914062 248.660156 92.128906 250.480469 93.140625 252.203125 C 93.546875 260.300781 93.851562 266.378906 93.851562 267.59375 Z M 56.554688 215.851562 C 57.164062 209.878906 58.378906 207.144531 60.304688 208.964844 C 63.242188 211.699219 67.09375 216.054688 71.046875 220.8125 C 71.65625 221.925781 77.835938 233.167969 81.992188 243.59375 C 84.121094 248.960938 85.640625 254.023438 85.539062 257.164062 C 85.4375 259.898438 84.933594 262.933594 84.324219 266.074219 C 83.109375 272.960938 81.789062 280.351562 84.527344 287.136719 C 84.121094 286.933594 83.613281 286.730469 83.109375 286.628906 C 79.863281 281.972656 75.710938 276.402344 70.84375 270.933594 C 66.789062 266.378906 62.332031 261.820312 57.566406 257.570312 C 57.363281 256.554688 57.261719 255.542969 57.164062 254.53125 C 57.0625 253.316406 56.960938 252.203125 56.859375 250.785156 C 56.046875 235.898438 55.742188 223.648438 56.554688 215.851562 Z M 28.074219 241.773438 C 37.398438 245.519531 46.824219 251.898438 55.335938 259.289062 C 60.203125 263.542969 64.761719 268.097656 68.714844 272.757812 C 72.464844 277.007812 75.710938 281.160156 78.445312 284.90625 C 74.289062 283.792969 69.628906 283.085938 64.359375 282.984375 C 63.851562 282.984375 63.242188 282.984375 62.738281 282.984375 C 61.214844 281.667969 59.796875 280.453125 58.277344 279.238281 C 56.554688 277.921875 54.832031 276.707031 53.007812 275.492188 C 47.027344 271.644531 43.074219 268.402344 38.210938 264.453125 C 33.242188 260.300781 27.261719 255.441406 17.332031 248.558594 C 13.378906 245.824219 10.539062 243.496094 8.414062 241.570312 C 7.195312 240.457031 6.183594 239.445312 5.472656 238.632812 C 12.464844 237.214844 20.269531 238.632812 28.074219 241.773438 Z M 27.0625 267.898438 C 16.113281 257.265625 5.066406 246.328125 3.546875 240.960938 C 4.359375 241.773438 5.269531 242.785156 6.386719 243.796875 C 8.613281 245.824219 11.554688 248.152344 15.609375 250.988281 C 25.539062 257.972656 31.316406 262.734375 36.285156 266.78125 C 41.25 270.832031 45.203125 274.175781 51.386719 278.023438 C 53.210938 279.136719 54.832031 280.351562 56.453125 281.566406 C 56.960938 281.972656 57.464844 282.375 57.972656 282.78125 C 56.554688 282.78125 55.136719 282.679688 53.816406 282.679688 C 48.648438 282.578125 44.59375 282.375 41.554688 282.578125 C 37.5 278.125 32.332031 273.0625 27.0625 267.898438 Z M 35.878906 286.730469 C 36.386719 286.019531 37.90625 285.71875 40.640625 285.617188 C 40.84375 285.617188 41.046875 285.617188 41.25 285.617188 C 44.085938 285.515625 48.140625 285.617188 53.714844 285.820312 C 56.757812 285.921875 60.304688 286.023438 64.359375 286.121094 C 70.539062 286.222656 75.8125 287.238281 80.371094 288.753906 C 84.730469 290.171875 88.480469 292.199219 91.824219 294.425781 C 92.128906 295.539062 92.433594 296.550781 92.835938 297.566406 C 93.648438 299.589844 94.359375 301.414062 95.066406 303.132812 C 95.066406 303.234375 95.167969 303.234375 95.167969 303.335938 C 95.675781 304.550781 96.285156 305.664062 96.789062 306.777344 C 96.992188 307.285156 97.296875 307.691406 97.5 308.195312 C 96.585938 309.109375 95.371094 309.816406 93.851562 310.222656 C 92.128906 310.625 90 310.625 87.363281 309.816406 C 84.730469 309.109375 82.09375 308.296875 79.761719 307.691406 C 69.019531 304.652344 66.6875 303.945312 61.925781 304.550781 C 59.492188 304.855469 56.554688 304.449219 53.816406 303.640625 C 51.082031 302.828125 48.648438 301.511719 47.027344 299.996094 C 40.84375 293.617188 36.285156 288.351562 35.878906 286.730469 Z M 83.007812 323.183594 C 80.777344 323.285156 77.9375 322.371094 74.796875 320.851562 C 68.511719 317.917969 61.214844 312.449219 54.628906 306.675781 C 57.261719 307.285156 60 307.589844 62.332031 307.285156 C 66.488281 306.777344 68.816406 307.386719 78.953125 310.324219 C 80.980469 310.929688 83.3125 311.539062 86.554688 312.449219 C 89.695312 313.359375 92.332031 313.359375 94.5625 312.855469 C 96.386719 312.449219 97.90625 311.640625 99.121094 310.523438 C 99.628906 311.335938 100.238281 312.144531 100.742188 312.855469 C 102.667969 315.183594 104.695312 316.5 106.824219 316.703125 C 106.519531 317.207031 106.316406 317.511719 106.214844 317.613281 C 104.898438 319.03125 102.871094 320.347656 99.425781 321.257812 C 95.777344 322.371094 90.609375 322.980469 83.007812 323.183594 Z M 297.261719 265.871094 C 297.261719 294.933594 285.304688 321.460938 266.148438 340.597656 C 246.992188 359.734375 220.4375 371.683594 191.351562 371.683594 C 173.007812 371.683594 155.574219 366.824219 140.472656 358.417969 C 125.167969 349.914062 112.195312 337.863281 102.667969 323.484375 C 105.40625 322.472656 107.230469 321.15625 108.546875 319.738281 L 108.75 319.535156 C 109.054688 319.03125 110.066406 317.613281 110.777344 315.890625 C 111.992188 315.183594 113.3125 314.171875 114.628906 312.652344 C 125.269531 300.195312 124.359375 292.804688 122.738281 279.742188 L 122.535156 278.425781 C 122.027344 274.476562 121.214844 270.125 120.40625 265.769531 C 118.480469 255.136719 116.453125 244.203125 118.683594 236.710938 L 118.886719 236 L 119.085938 235.191406 C 119.289062 234.382812 119.390625 233.570312 119.492188 232.660156 C 119.492188 232.660156 119.492188 232.660156 119.492188 232.558594 C 119.59375 231.949219 119.695312 231.242188 119.695312 230.636719 C 119.796875 229.21875 119.796875 227.699219 119.59375 226.28125 C 119.492188 225.773438 119.492188 225.371094 119.390625 224.863281 L 119.390625 224.761719 C 119.289062 224.355469 119.1875 223.953125 119.085938 223.546875 C 118.480469 221.320312 117.261719 219.496094 116.148438 218.382812 C 115.539062 217.875 114.933594 217.371094 114.425781 217.167969 C 113.714844 216.863281 112.90625 216.761719 112.296875 216.964844 C 112.195312 216.964844 112.09375 217.066406 111.890625 217.167969 C 111.6875 216.257812 111.488281 215.445312 111.386719 214.941406 C 111.183594 213.828125 110.777344 209.777344 110.269531 205.117188 C 109.359375 196.308594 108.140625 185.070312 107.128906 183.652344 C 105.710938 181.726562 103.988281 181.324219 101.757812 185.070312 C 100.4375 187.398438 98.613281 191.957031 96.183594 200.460938 C 93.34375 210.078125 93.039062 230.535156 93.34375 246.328125 C 93.039062 245.925781 92.835938 245.519531 92.535156 245.113281 C 91.113281 242.886719 89.59375 240.660156 88.175781 238.429688 C 87.363281 237.214844 86.453125 235.796875 85.4375 234.382812 L 85.4375 109.128906 C 85.4375 80.066406 97.398438 53.539062 116.554688 34.402344 C 135.710938 15.164062 162.164062 3.214844 191.351562 3.214844 C 215.777344 3.214844 238.277344 11.519531 256.214844 25.390625 C 274.359375 39.464844 287.738281 59.210938 293.714844 81.992188 C 291.585938 84.117188 289.359375 86.347656 287.128906 88.574219 C 280.945312 94.953125 274.863281 101.839844 270.914062 107.003906 L 270.8125 107.101562 C 268.886719 109.632812 267.0625 111.964844 265.238281 114.292969 C 264.730469 114.898438 264.222656 115.609375 263.714844 116.214844 C 265.640625 98.089844 267.566406 74.195312 265.335938 62.753906 C 263.414062 52.832031 261.890625 47.464844 260.574219 44.628906 C 258.546875 40.273438 256.722656 40.679688 255 42.503906 C 253.683594 44.019531 251.148438 56.679688 249.222656 66.601562 C 248.210938 71.96875 247.296875 76.421875 246.890625 77.738281 C 246.6875 78.449219 246.386719 79.460938 245.980469 80.472656 C 245.777344 80.371094 245.574219 80.167969 245.371094 80.167969 C 244.664062 79.867188 243.851562 79.867188 243.039062 80.167969 C 242.332031 80.371094 241.621094 80.777344 241.011719 81.382812 C 239.59375 82.5 238.074219 84.421875 237.164062 86.75 L 237.164062 86.851562 C 236.960938 87.257812 236.859375 87.761719 236.65625 88.269531 C 236.554688 88.777344 236.351562 89.28125 236.25 89.789062 C 235.945312 91.410156 235.742188 93.027344 235.742188 94.648438 C 235.742188 95.457031 235.742188 96.167969 235.742188 96.875 C 235.742188 96.976562 235.742188 96.976562 235.742188 97.078125 C 235.742188 98.089844 235.84375 99.003906 235.945312 99.914062 L 236.046875 100.824219 L 236.148438 101.636719 C 237.871094 110.445312 234.425781 122.796875 231.082031 134.644531 C 229.664062 139.503906 228.34375 144.363281 227.332031 148.820312 L 227.027344 150.339844 C 226.113281 154.691406 225.304688 158.441406 224.898438 161.984375 C 223.175781 159.148438 222.0625 155.097656 221.25 149.933594 L 222.464844 149.933594 C 223.277344 149.933594 223.988281 149.226562 223.988281 148.414062 L 223.988281 89.382812 C 223.988281 87.664062 221.859375 86.144531 218.210938 85.03125 C 217.601562 82.398438 217.09375 79.867188 216.585938 77.636719 C 212.738281 59.511719 210.609375 49.894531 190.539062 45.640625 C 182.835938 44.019531 173.511719 42.605469 166.417969 43.007812 C 160.640625 43.3125 156.285156 44.933594 154.964844 48.578125 C 154.460938 49.894531 154.460938 51.414062 154.761719 52.929688 C 155.066406 54.347656 155.777344 55.96875 156.789062 57.589844 C 159.324219 61.335938 161.148438 65.589844 162.363281 70.347656 C 163.480469 74.804688 164.085938 79.664062 164.085938 85.03125 C 160.539062 86.144531 158.414062 87.664062 158.414062 89.382812 L 158.414062 148.515625 C 158.414062 149.328125 159.121094 150.035156 159.933594 150.035156 L 161.148438 150.035156 C 160.4375 155.402344 159.121094 159.554688 157.296875 162.386719 C 155.472656 165.324219 153.039062 166.945312 150.101562 167.25 C 146.453125 167.25 143.109375 168.769531 140.675781 171.199219 L 140.574219 171.300781 C 138.140625 173.730469 136.722656 177.070312 136.722656 180.714844 L 136.722656 317.308594 C 136.722656 321.054688 138.242188 324.398438 140.675781 326.828125 C 143.109375 329.257812 146.453125 330.777344 150.203125 330.777344 L 232.195312 330.777344 C 235.945312 330.777344 239.289062 329.257812 241.722656 326.828125 C 244.15625 324.398438 245.675781 321.054688 245.675781 317.308594 L 245.675781 202.484375 C 247.5 203.296875 249.628906 204.105469 252.261719 204.816406 C 256.113281 205.828125 260.980469 206.636719 267.160156 207.347656 C 270.304688 207.75 274.054688 206.941406 278.3125 205.421875 C 284.085938 203.296875 290.675781 199.652344 297.160156 195.398438 L 297.160156 265.871094 Z M 325.539062 167.351562 C 324.933594 169.171875 319.15625 174.84375 311.351562 181.222656 C 309.324219 182.84375 306.386719 184.058594 303.140625 184.664062 C 299.898438 185.375 296.453125 185.476562 293.613281 184.867188 C 288.242188 183.753906 285.507812 184.261719 272.9375 186.589844 C 270.304688 187.09375 267.261719 187.703125 264.121094 188.207031 C 260.980469 188.816406 258.546875 188.613281 256.621094 188.007812 C 254.796875 187.398438 253.378906 186.386719 252.464844 185.171875 C 252.769531 184.664062 253.175781 184.058594 253.582031 183.550781 C 254.289062 182.4375 255 181.121094 255.8125 179.804688 C 255.8125 179.804688 255.8125 179.804688 255.8125 179.703125 C 256.824219 177.78125 257.9375 175.753906 259.054688 173.527344 C 259.5625 172.414062 260.066406 171.199219 260.472656 169.984375 C 264.527344 167.753906 269.085938 165.933594 274.257812 164.71875 C 279.730469 163.402344 285.8125 162.894531 292.90625 163.402344 C 297.363281 163.703125 301.417969 164.007812 305.066406 164.210938 C 311.554688 164.617188 316.316406 164.921875 319.5625 165.324219 C 319.664062 165.324219 319.761719 165.324219 319.964844 165.324219 C 323.3125 165.832031 325.035156 166.4375 325.539062 167.351562 Z M 337.5 146.996094 C 330.914062 152.363281 324.527344 157.628906 319.359375 162.289062 C 315.8125 161.882812 311.25 161.578125 305.269531 161.171875 C 303.648438 161.074219 301.824219 160.972656 299.898438 160.871094 C 300.710938 160.363281 301.519531 159.757812 302.332031 159.25 C 304.257812 158.035156 306.386719 156.820312 308.511719 155.707031 C 315.914062 151.859375 320.878906 148.515625 326.960938 144.363281 C 333.039062 140.214844 340.238281 135.351562 352.195312 128.46875 C 357.0625 125.632812 360.710938 123.304688 363.445312 121.175781 C 365.167969 119.863281 366.488281 118.746094 367.601562 117.734375 C 367.601562 117.835938 367.601562 118.039062 367.5 118.140625 C 365.574219 124.214844 351.386719 135.65625 337.5 146.996094 Z M 150.914062 245.925781 C 150.914062 245.113281 151.621094 244.40625 152.433594 244.40625 L 230.066406 244.40625 C 230.878906 244.40625 231.585938 245.113281 231.585938 245.925781 C 231.585938 246.734375 230.878906 247.441406 230.066406 247.441406 L 152.433594 247.441406 C 151.621094 247.441406 150.914062 246.835938 150.914062 245.925781 Z M 150.914062 264.859375 C 150.914062 264.050781 151.621094 263.339844 152.433594 263.339844 L 230.066406 263.339844 C 230.878906 263.339844 231.585938 264.050781 231.585938 264.859375 C 231.585938 265.667969 230.878906 266.378906 230.066406 266.378906 L 152.433594 266.378906 C 151.621094 266.378906 150.914062 265.667969 150.914062 264.859375 Z M 143.613281 130.390625 C 139.664062 130.390625 136.011719 128.773438 133.378906 126.140625 C 130.742188 123.507812 129.121094 119.960938 129.121094 115.914062 L 126.082031 115.914062 C 126.082031 119.863281 124.460938 123.507812 121.824219 126.140625 C 119.289062 128.671875 115.742188 130.289062 111.890625 130.390625 L 111.585938 130.390625 L 111.585938 133.429688 C 115.539062 133.429688 119.1875 135.050781 121.824219 137.683594 C 124.460938 140.316406 126.082031 143.859375 126.082031 147.910156 L 129.121094 147.910156 C 129.121094 143.960938 130.742188 140.316406 133.378906 137.683594 C 136.011719 135.050781 139.5625 133.429688 143.613281 133.429688 Z M 131.25 135.453125 C 129.730469 136.972656 128.511719 138.695312 127.601562 140.71875 C 126.6875 138.796875 125.472656 136.972656 123.953125 135.453125 C 122.433594 133.9375 120.710938 132.722656 118.785156 131.910156 C 120.710938 131 122.535156 129.785156 123.953125 128.367188 C 125.472656 126.847656 126.6875 125.125 127.5 123.203125 C 128.414062 125.125 129.628906 126.949219 131.148438 128.367188 C 132.667969 129.886719 134.390625 131.101562 136.316406 132.011719 C 134.492188 132.820312 132.769531 134.039062 131.25 135.453125 Z M 124.054688 128.265625 Z M 331.824219 219.597656 L 328.785156 219.597656 C 328.785156 223.546875 327.164062 227.191406 324.527344 229.824219 C 321.992188 232.355469 318.445312 233.976562 314.59375 234.078125 L 314.289062 234.078125 L 314.289062 237.113281 C 318.242188 237.113281 321.890625 238.734375 324.527344 241.367188 C 327.164062 244 328.785156 247.542969 328.785156 251.59375 L 331.824219 251.59375 C 331.824219 247.644531 333.445312 244 336.082031 241.367188 C 338.714844 238.734375 342.261719 237.113281 346.316406 237.113281 L 346.316406 234.078125 C 342.363281 234.078125 338.714844 232.457031 336.082031 229.824219 C 333.445312 227.191406 331.824219 223.546875 331.824219 219.597656 Z M 333.851562 239.140625 C 332.332031 240.660156 331.113281 242.378906 330.203125 244.40625 C 329.289062 242.480469 328.074219 240.660156 326.554688 239.140625 C 325.035156 237.621094 323.3125 236.40625 321.386719 235.597656 C 323.3125 234.683594 325.136719 233.46875 326.554688 232.050781 C 328.074219 230.535156 329.289062 228.8125 330.203125 226.886719 C 331.113281 228.8125 332.332031 230.636719 333.851562 232.050781 C 335.371094 233.570312 337.09375 234.785156 339.019531 235.597656 C 337.09375 236.40625 335.371094 237.621094 333.851562 239.140625 Z M 61.316406 127.050781 C 63.140625 127.050781 64.761719 126.339844 65.878906 125.125 C 67.09375 123.910156 67.804688 122.394531 67.804688 120.570312 C 67.804688 118.847656 67.09375 117.230469 65.980469 116.113281 L 65.878906 116.015625 C 64.664062 114.796875 63.140625 114.089844 61.316406 114.089844 C 59.59375 114.089844 57.972656 114.796875 56.859375 115.914062 L 56.757812 116.015625 C 55.539062 117.230469 54.832031 118.746094 54.832031 120.570312 C 54.832031 122.394531 55.539062 124.011719 56.757812 125.125 C 57.871094 126.339844 59.492188 127.050781 61.316406 127.050781 Z M 58.886719 118.140625 C 59.59375 117.53125 60.40625 117.128906 61.316406 117.128906 C 62.230469 117.128906 63.140625 117.53125 63.75 118.140625 L 63.851562 118.242188 C 64.460938 118.847656 64.761719 119.660156 64.761719 120.570312 C 64.761719 121.480469 64.359375 122.394531 63.75 123 C 63.140625 123.609375 62.332031 124.011719 61.316406 124.011719 C 60.40625 124.011719 59.492188 123.609375 58.886719 123 C 58.277344 122.394531 57.871094 121.582031 57.871094 120.570312 C 57.871094 119.660156 58.277344 118.746094 58.886719 118.140625 Z M 333.140625 95.457031 C 334.964844 95.457031 336.585938 94.75 337.703125 93.535156 C 338.917969 92.320312 339.628906 90.800781 339.628906 88.976562 C 339.628906 87.257812 338.917969 85.636719 337.804688 84.523438 L 337.703125 84.421875 C 336.488281 83.207031 334.964844 82.5 333.140625 82.5 C 331.417969 82.5 329.796875 83.207031 328.683594 84.320312 L 328.582031 84.421875 C 327.363281 85.636719 326.65625 87.15625 326.65625 88.976562 C 326.65625 90.800781 327.363281 92.421875 328.582031 93.535156 C 329.695312 94.75 331.316406 95.457031 333.140625 95.457031 Z M 330.710938 86.648438 C 331.417969 86.042969 332.230469 85.636719 333.140625 85.636719 C 334.054688 85.636719 334.964844 86.042969 335.574219 86.648438 L 335.675781 86.75 C 336.285156 87.359375 336.585938 88.167969 336.585938 89.078125 C 336.585938 89.992188 336.183594 90.902344 335.574219 91.511719 C 334.964844 92.117188 334.15625 92.523438 333.140625 92.523438 C 332.230469 92.523438 331.316406 92.117188 330.710938 91.511719 C 330.101562 90.902344 329.695312 90.09375 329.695312 89.078125 C 329.695312 88.066406 330.101562 87.257812 330.710938 86.648438 Z M 97.398438 342.421875 C 96.183594 341.207031 94.664062 340.496094 92.835938 340.496094 C 91.113281 340.496094 89.492188 341.207031 88.378906 342.320312 L 88.277344 342.421875 C 87.0625 343.636719 86.351562 345.15625 86.351562 346.976562 C 86.351562 348.800781 87.0625 350.417969 88.277344 351.535156 C 89.492188 352.75 91.011719 353.457031 92.835938 353.457031 C 94.664062 353.457031 96.285156 352.75 97.398438 351.535156 C 98.613281 350.320312 99.324219 348.800781 99.324219 346.976562 C 99.222656 345.253906 98.613281 343.738281 97.398438 342.421875 Z M 95.167969 349.40625 C 94.5625 350.015625 93.75 350.417969 92.738281 350.417969 C 91.824219 350.417969 90.914062 350.015625 90.304688 349.40625 C 89.695312 348.800781 89.289062 347.988281 89.289062 346.976562 C 89.289062 346.066406 89.695312 345.15625 90.304688 344.546875 L 90.40625 344.445312 C 91.011719 343.839844 91.824219 343.535156 92.738281 343.535156 C 93.648438 343.535156 94.5625 343.941406 95.167969 344.546875 L 95.269531 344.648438 C 95.878906 345.257812 96.183594 346.066406 96.183594 346.976562 C 96.183594 347.988281 95.777344 348.800781 95.167969 349.40625 Z M 225.40625 55.96875 C 226.621094 57.183594 228.140625 57.894531 229.964844 57.894531 C 231.789062 57.894531 233.3125 57.183594 234.527344 55.96875 C 235.742188 54.753906 236.453125 53.234375 236.453125 51.414062 C 236.453125 49.589844 235.742188 47.96875 234.527344 46.855469 C 233.3125 45.640625 231.789062 44.933594 229.964844 44.933594 C 228.140625 44.933594 226.519531 45.640625 225.40625 46.855469 C 224.1875 48.070312 223.480469 49.589844 223.480469 51.414062 C 223.480469 53.132812 224.1875 54.652344 225.40625 55.96875 Z M 227.535156 48.984375 C 228.140625 48.375 228.953125 47.96875 229.964844 47.96875 C 230.878906 47.96875 231.789062 48.375 232.398438 48.984375 C 233.007812 49.589844 233.414062 50.398438 233.414062 51.414062 C 233.414062 52.324219 233.007812 53.234375 232.398438 53.84375 C 231.789062 54.449219 230.980469 54.855469 229.964844 54.855469 C 229.054688 54.855469 228.140625 54.449219 227.535156 53.84375 L 227.433594 53.742188 C 226.824219 53.132812 226.519531 52.324219 226.519531 51.414062 C 226.519531 50.5 226.925781 49.589844 227.535156 48.984375 Z M 273.75 231.140625 L 273.75 236.8125 C 273.75 237.621094 273.039062 238.332031 272.230469 238.332031 C 271.417969 238.332031 270.710938 237.621094 270.710938 236.8125 L 270.710938 231.140625 C 270.710938 230.332031 271.417969 229.621094 272.230469 229.621094 C 273.140625 229.621094 273.75 230.332031 273.75 231.140625 Z M 273.75 254.53125 L 273.75 260.203125 C 273.75 261.011719 273.039062 261.71875 272.230469 261.71875 C 271.417969 261.71875 270.710938 261.011719 270.710938 260.203125 L 270.710938 254.53125 C 270.710938 253.722656 271.417969 253.011719 272.230469 253.011719 C 273.140625 253.011719 273.75 253.621094 273.75 254.53125 Z M 279.527344 245.722656 C 279.527344 244.910156 280.238281 244.203125 281.046875 244.203125 L 286.722656 244.203125 C 287.535156 244.203125 288.242188 244.910156 288.242188 245.722656 C 288.242188 246.53125 287.535156 247.242188 286.722656 247.242188 L 281.046875 247.242188 C 280.238281 247.242188 279.527344 246.53125 279.527344 245.722656 Z M 264.933594 245.722656 C 264.933594 246.53125 264.222656 247.242188 263.414062 247.242188 L 257.738281 247.242188 C 256.925781 247.242188 256.214844 246.53125 256.214844 245.722656 C 256.214844 244.910156 256.925781 244.203125 257.738281 244.203125 L 263.414062 244.203125 C 264.222656 244.101562 264.933594 244.808594 264.933594 245.722656 Z M 126.890625 65.386719 L 126.890625 59.714844 C 126.890625 58.90625 127.601562 58.195312 128.414062 58.195312 C 129.222656 58.195312 129.933594 58.90625 129.933594 59.714844 L 129.933594 65.386719 C 129.933594 66.195312 129.222656 66.90625 128.414062 66.90625 C 127.601562 66.90625 126.890625 66.296875 126.890625 65.386719 Z M 126.890625 88.777344 L 126.890625 83.105469 C 126.890625 82.296875 127.601562 81.585938 128.414062 81.585938 C 129.222656 81.585938 129.933594 82.296875 129.933594 83.105469 L 129.933594 88.777344 C 129.933594 89.585938 129.222656 90.292969 128.414062 90.292969 C 127.601562 90.292969 126.890625 89.585938 126.890625 88.777344 Z M 135.710938 74.195312 C 135.710938 73.386719 136.417969 72.675781 137.230469 72.675781 L 142.90625 72.675781 C 143.714844 72.675781 144.425781 73.386719 144.425781 74.195312 C 144.425781 75.003906 143.714844 75.714844 142.90625 75.714844 L 137.230469 75.714844 C 136.417969 75.714844 135.710938 75.105469 135.710938 74.195312 Z M 112.398438 74.195312 C 112.398438 73.386719 113.109375 72.675781 113.917969 72.675781 L 119.59375 72.675781 C 120.40625 72.675781 121.113281 73.386719 121.113281 74.195312 C 121.113281 75.003906 120.40625 75.714844 119.59375 75.714844 L 113.917969 75.714844 C 113.109375 75.714844 112.398438 75.105469 112.398438 74.195312 Z M 21.890625 190.640625 L 21.890625 184.96875 C 21.890625 184.160156 22.601562 183.449219 23.414062 183.449219 C 24.222656 183.449219 24.933594 184.160156 24.933594 184.96875 L 24.933594 190.640625 C 24.933594 191.449219 24.222656 192.15625 23.414062 192.15625 C 22.601562 192.257812 21.890625 191.550781 21.890625 190.640625 Z M 21.890625 214.027344 L 21.890625 208.359375 C 21.890625 207.546875 22.601562 206.839844 23.414062 206.839844 C 24.222656 206.839844 24.933594 207.546875 24.933594 208.359375 L 24.933594 214.027344 C 24.933594 214.839844 24.222656 215.546875 23.414062 215.546875 C 22.601562 215.546875 21.890625 214.839844 21.890625 214.027344 Z M 30.710938 199.550781 C 30.710938 198.738281 31.417969 198.03125 32.230469 198.03125 L 37.90625 198.03125 C 38.714844 198.03125 39.425781 198.738281 39.425781 199.550781 C 39.425781 200.359375 38.714844 201.066406 37.90625 201.066406 L 32.230469 201.066406 C 31.417969 201.066406 30.710938 200.359375 30.710938 199.550781 Z M 7.398438 199.550781 C 7.398438 198.738281 8.109375 198.03125 8.917969 198.03125 L 14.59375 198.03125 C 15.40625 198.03125 16.113281 198.738281 16.113281 199.550781 C 16.113281 200.359375 15.40625 201.066406 14.59375 201.066406 L 8.917969 201.066406 C 8.109375 201.066406 7.398438 200.359375 7.398438 199.550781 Z M 305.472656 23.464844 L 305.472656 17.796875 C 305.472656 16.984375 306.183594 16.277344 306.992188 16.277344 C 307.804688 16.277344 308.511719 16.984375 308.511719 17.796875 L 308.511719 23.464844 C 308.511719 24.277344 307.804688 24.984375 306.992188 24.984375 C 306.082031 24.984375 305.472656 24.277344 305.472656 23.464844 Z M 305.472656 46.753906 L 305.472656 41.085938 C 305.472656 40.273438 306.183594 39.566406 306.992188 39.566406 C 307.804688 39.566406 308.511719 40.273438 308.511719 41.085938 L 308.511719 46.753906 C 308.511719 47.566406 307.804688 48.273438 306.992188 48.273438 C 306.082031 48.273438 305.472656 47.667969 305.472656 46.753906 Z M 314.289062 32.277344 C 314.289062 31.464844 315 30.757812 315.8125 30.757812 L 321.488281 30.757812 C 322.296875 30.757812 323.007812 31.464844 323.007812 32.277344 C 323.007812 33.085938 322.296875 33.792969 321.488281 33.792969 L 315.8125 33.792969 C 315 33.792969 314.289062 33.085938 314.289062 32.277344 Z M 290.878906 32.277344 C 290.878906 31.464844 291.585938 30.757812 292.398438 30.757812 L 298.074219 30.757812 C 298.886719 30.757812 299.59375 31.464844 299.59375 32.277344 C 299.59375 33.085938 298.886719 33.792969 298.074219 33.792969 L 292.398438 33.792969 C 291.585938 33.792969 290.878906 33.085938 290.878906 32.277344 Z M 290.878906 32.277344 " fill-opacity="1" fill-rule="nonzero"/></svg>