<svg xmlns="http://www.w3.org/2000/svg" xmlns:xlink="http://www.w3.org/1999/xlink" width="500" zoomAndPan="magnify" viewBox="0 0 375 374.999991" height="500" preserveAspectRatio="xMidYMid meet" version="1.0"><path fill="#4e2718" d="M 360.046875 38.316406 C 290.71875 88.839844 198.253906 255.425781 158.769531 326.5625 L 153.140625 336.683594 C 150.214844 341.972656 145.097656 345.554688 139.101562 346.464844 C 133.160156 347.347656 127.191406 345.527344 122.785156 341.347656 C 122.785156 341.347656 122.328125 340.863281 122.328125 340.863281 L 14.058594 217.921875 C 12.15625 215.761719 12.210938 212.519531 14.199219 210.445312 C 15.308594 209.277344 16.757812 208.683594 18.238281 208.683594 C 19.429688 208.683594 20.625 209.078125 21.621094 209.847656 L 117.808594 283.855469 C 121.304688 286.53125 125.769531 287.609375 130.089844 286.8125 C 134.382812 286.046875 138.164062 283.457031 140.4375 279.734375 C 186.597656 205.015625 283.1875 77.921875 353.394531 29.332031 C 354.703125 28.449219 356.265625 28.109375 357.773438 28.421875 C 359.28125 28.734375 360.558594 29.644531 361.382812 30.953125 C 362.917969 33.398438 362.351562 36.640625 360.046875 38.316406 Z M 367.4375 27.171875 C 365.589844 24.183594 362.664062 22.136719 359.222656 21.425781 C 355.753906 20.746094 352.257812 21.425781 349.332031 23.472656 C 278.269531 72.632812 180.855469 200.75 134.382812 276.007812 C 133.132812 278.027344 131.140625 279.363281 128.808594 279.789062 C 126.480469 280.21875 124.035156 279.648438 122.160156 278.199219 L 25.96875 204.191406 C 20.824219 200.210938 13.519531 200.777344 9.027344 205.527344 C 4.480469 210.332031 4.367188 217.695312 8.714844 222.640625 L 116.957031 345.554688 C 117.242188 345.894531 117.582031 346.207031 117.894531 346.519531 C 122.898438 351.269531 129.351562 353.828125 136.117188 353.828125 C 137.480469 353.828125 138.84375 353.714844 140.207031 353.515625 C 148.367188 352.265625 155.359375 347.402344 159.621094 339.726562 L 165.023438 330.03125 C 204.277344 259.292969 296.203125 93.671875 364.253906 44.089844 C 369.542969 40.222656 370.960938 32.773438 367.4375 27.171875 " fill-opacity="1" fill-rule="nonzero"/></svg>