<svg xmlns="http://www.w3.org/2000/svg" xmlns:xlink="http://www.w3.org/1999/xlink" width="500" zoomAndPan="magnify" viewBox="0 0 375 374.999991" height="500" preserveAspectRatio="xMidYMid meet" version="1.0"><defs><clipPath id="815c4da3d2"><path d="M 208 57 L 370.824219 57 L 370.824219 348.75 L 208 348.75 Z M 208 57 " clip-rule="nonzero"/></clipPath><clipPath id="af8566d72b"><path d="M 4.074219 18.75 L 370.824219 18.75 L 370.824219 131 L 4.074219 131 Z M 4.074219 18.75 " clip-rule="nonzero"/></clipPath><clipPath id="82bcc5ad9f"><path d="M 4.074219 86 L 213 86 L 213 348.75 L 4.074219 348.75 Z M 4.074219 86 " clip-rule="nonzero"/></clipPath></defs><g clip-path="url(#815c4da3d2)"><path fill="#4e2718" d="M 210.53125 346.253906 L 211.492188 348.484375 L 369.035156 280.496094 C 369.921875 280.113281 370.5 279.230469 370.5 278.265625 L 370.5 59.753906 C 370.5 58.933594 370.09375 58.175781 369.410156 57.722656 C 368.722656 57.273438 367.867188 57.199219 367.117188 57.523438 L 209.574219 125.507812 C 208.683594 125.890625 208.105469 126.773438 208.105469 127.738281 L 208.105469 346.253906 C 208.105469 347.074219 208.515625 347.832031 209.199219 348.285156 C 209.882812 348.730469 210.742188 348.808594 211.492188 348.484375 L 210.53125 346.253906 L 212.957031 346.253906 L 212.957031 129.332031 L 365.652344 63.445312 L 365.652344 276.667969 L 209.574219 344.023438 L 210.53125 346.253906 L 212.957031 346.253906 L 210.53125 346.253906 " fill-opacity="1" fill-rule="nonzero"/></g><g clip-path="url(#af8566d72b)"><path fill="#4e2718" d="M 210.53125 127.746094 L 211.492188 129.976562 L 369.035156 61.992188 C 370.015625 61.566406 370.605469 60.5625 370.484375 59.496094 C 370.367188 58.433594 369.578125 57.578125 368.527344 57.378906 L 164.816406 18.859375 C 164.339844 18.769531 163.855469 18.820312 163.40625 19.015625 L 5.867188 87.003906 C 4.882812 87.425781 4.296875 88.433594 4.414062 89.5 C 4.53125 90.5625 5.324219 91.417969 6.375 91.617188 L 210.082031 130.132812 C 210.558594 130.222656 211.046875 130.167969 211.492188 129.976562 L 210.53125 127.746094 L 210.984375 125.359375 L 15.066406 88.320312 L 164.644531 23.769531 L 359.835938 60.675781 L 209.574219 125.515625 L 210.53125 127.746094 L 210.984375 125.359375 L 210.53125 127.746094 " fill-opacity="1" fill-rule="nonzero"/></g><path fill="#4e2718" d="M 285.636719 179.878906 C 285.171875 179.878906 284.707031 179.742188 284.304688 179.480469 C 283.625 179.027344 283.210938 178.269531 283.210938 177.445312 L 283.210938 99.027344 L 285.664062 97.972656 C 285.984375 97.96875 286.308594 97.898438 286.601562 97.769531 L 288.0625 97.136719 L 288.0625 173.746094 L 314.753906 162.152344 L 314.753906 85.539062 L 318.148438 84.0625 C 318.367188 83.96875 318.566406 83.84375 318.746094 83.691406 L 319.609375 83.324219 L 319.609375 163.742188 C 319.609375 164.710938 319.035156 165.585938 318.148438 165.972656 L 286.601562 179.671875 L 285.636719 177.445312 L 286.601562 179.671875 C 286.292969 179.808594 285.960938 179.878906 285.636719 179.878906 " fill-opacity="1" fill-rule="nonzero"/><path fill="#4e2718" d="M 283.210938 99.027344 L 283.210938 98.964844 L 285.558594 97.96875 C 285.582031 97.972656 285.605469 97.972656 285.632812 97.972656 C 285.640625 97.972656 285.652344 97.972656 285.664062 97.972656 L 283.210938 99.027344 M 318.746094 83.691406 C 318.925781 83.539062 319.082031 83.367188 319.207031 83.171875 C 319.339844 83.109375 319.472656 83.050781 319.609375 82.988281 L 319.609375 83.324219 L 318.746094 83.691406 M 308.261719 83.066406 L 309.039062 82.726562 L 309.042969 82.726562 L 308.316406 83.042969 C 308.300781 83.050781 308.28125 83.058594 308.261719 83.066406 " fill-opacity="1" fill-rule="nonzero"/><path fill="#4e2718" d="M 277.117188 96.359375 L 83.628906 58.730469 L 91.535156 55.320312 L 285.023438 92.949219 L 277.117188 96.359375 M 308.8125 82.683594 L 115.335938 45.050781 L 123.234375 41.640625 L 316.714844 79.273438 L 308.8125 82.683594 M 81.699219 54.277344 C 81.863281 54.144531 82.046875 54.035156 82.246094 53.945312 L 113.792969 40.234375 C 114.078125 40.113281 114.382812 40.046875 114.695312 40.039062 L 81.699219 54.277344 " fill-opacity="1" fill-rule="nonzero"/><path fill="#4e2718" d="M 277.132812 96.363281 L 277.117188 96.359375 L 285.023438 92.949219 L 285.039062 92.953125 L 277.132812 96.363281 M 308.824219 82.6875 L 308.8125 82.683594 L 316.714844 79.273438 L 316.730469 79.277344 L 308.824219 82.6875 " fill-opacity="1" fill-rule="nonzero"/><path fill="#4e2718" d="M 83.628906 58.730469 L 82.746094 58.558594 C 81.707031 58.355469 80.917969 57.496094 80.800781 56.4375 C 80.710938 55.597656 81.0625 54.785156 81.699219 54.277344 L 114.695312 40.039062 C 114.714844 40.039062 114.738281 40.039062 114.761719 40.039062 C 114.917969 40.039062 115.070312 40.050781 115.21875 40.082031 L 123.234375 41.640625 L 115.335938 45.050781 L 115.03125 44.992188 L 103.210938 50.128906 C 101.835938 49.945312 100.457031 49.761719 99.078125 49.582031 C 100.222656 49.867188 101.363281 50.152344 102.507812 50.433594 L 91.347656 55.285156 L 91.535156 55.320312 L 83.628906 58.730469 " fill-opacity="1" fill-rule="nonzero"/><path fill="#4e2718" d="M 285.664062 97.972656 L 318.746094 83.691406 C 318.566406 83.84375 318.367188 83.96875 318.148438 84.0625 L 314.753906 85.539062 L 288.0625 97.136719 L 286.601562 97.769531 C 286.308594 97.898438 285.984375 97.96875 285.664062 97.972656 " fill-opacity="1" fill-rule="nonzero"/><path fill="#4e2718" d="M 285.632812 97.972656 C 285.605469 97.972656 285.582031 97.972656 285.558594 97.96875 L 290.261719 95.976562 L 309.90625 87.359375 C 313 85.953125 316.109375 84.5625 319.207031 83.171875 C 319.082031 83.367188 318.925781 83.539062 318.746094 83.691406 L 285.664062 97.972656 C 285.652344 97.972656 285.640625 97.972656 285.632812 97.972656 M 277.253906 96.386719 L 277.132812 96.363281 L 285.039062 92.953125 L 285.0625 92.960938 L 277.253906 96.386719 M 308.316406 83.042969 L 309.042969 82.726562 L 308.824219 82.6875 L 316.730469 79.277344 L 317.207031 79.371094 C 314.246094 80.597656 311.285156 81.824219 308.316406 83.042969 " fill-opacity="1" fill-rule="nonzero"/><g clip-path="url(#82bcc5ad9f)"><path fill="#4e2718" d="M 210.53125 346.253906 L 210.988281 343.867188 L 9.25 305.394531 L 9.25 91.824219 L 208.105469 129.746094 L 208.105469 346.253906 L 210.53125 346.253906 L 210.988281 343.867188 L 210.53125 346.253906 L 212.957031 346.253906 L 212.957031 127.738281 C 212.957031 126.570312 212.128906 125.570312 210.988281 125.351562 L 7.28125 86.507812 C 6.570312 86.371094 5.832031 86.558594 5.277344 87.019531 C 4.726562 87.480469 4.398438 88.171875 4.398438 88.894531 L 4.398438 307.402344 C 4.398438 308.566406 5.226562 309.570312 6.371094 309.789062 L 210.078125 348.640625 C 210.78125 348.773438 211.523438 348.582031 212.078125 348.125 C 212.632812 347.664062 212.957031 346.972656 212.957031 346.253906 L 210.53125 346.253906 " fill-opacity="1" fill-rule="nonzero"/></g><path fill="#4e2718" d="M 297.804688 87.4375 C 282.316406 85.351562 266.898438 82.910156 251.507812 80.328125 C 242.976562 78.941406 234.484375 77.378906 225.96875 75.910156 L 200.484375 71.222656 L 175.042969 66.273438 C 166.582031 64.542969 158.101562 62.886719 149.65625 61.0625 C 133.972656 57.761719 118.3125 54.316406 102.730469 50.488281 L 103.480469 50.164062 C 119.160156 52.265625 134.773438 54.742188 150.351562 57.355469 C 158.882812 58.742188 167.382812 60.296875 175.894531 61.769531 L 201.382812 66.453125 L 226.820312 71.390625 C 235.28125 73.125 243.761719 74.777344 252.207031 76.601562 C 267.734375 79.867188 283.230469 83.277344 298.65625 87.066406 L 297.804688 87.4375 " fill-opacity="1" fill-rule="nonzero"/><path fill="#4e2718" d="M 297.820312 87.4375 C 297.816406 87.4375 297.808594 87.4375 297.804688 87.4375 L 298.65625 87.066406 C 298.660156 87.066406 298.667969 87.066406 298.671875 87.070312 L 297.820312 87.4375 " fill-opacity="1" fill-rule="nonzero"/><path fill="#4e2718" d="M 297.925781 87.453125 C 297.890625 87.449219 297.855469 87.441406 297.820312 87.4375 L 298.671875 87.070312 C 298.703125 87.078125 298.730469 87.085938 298.765625 87.09375 L 297.925781 87.453125 M 102.730469 50.488281 C 102.65625 50.472656 102.582031 50.453125 102.507812 50.433594 L 103.210938 50.128906 C 103.304688 50.140625 103.390625 50.152344 103.480469 50.164062 L 102.730469 50.488281 " fill-opacity="1" fill-rule="nonzero"/><path fill="#4e2718" d="M 102.507812 50.433594 C 101.363281 50.152344 100.222656 49.867188 99.078125 49.582031 C 100.457031 49.761719 101.835938 49.945312 103.210938 50.128906 L 102.507812 50.433594 " fill-opacity="1" fill-rule="nonzero"/><path fill="#4e2718" d="M 287.417969 91.921875 L 288.34375 91.519531 L 289.332031 91.101562 L 287.417969 91.921875 " fill-opacity="1" fill-rule="nonzero"/><path fill="#4e2718" d="M 212.820312 126.929688 C 212.78125 126.824219 212.738281 126.726562 212.6875 126.628906 C 224.722656 120.457031 236.914062 114.664062 249.167969 109.011719 C 255.644531 105.972656 262.191406 103.09375 268.703125 100.140625 L 277.253906 96.386719 L 283.210938 97.546875 L 283.210938 98.964844 L 270.519531 104.347656 C 263.902344 107.058594 257.316406 109.847656 250.667969 112.472656 C 238.144531 117.511719 225.5625 122.410156 212.820312 126.929688 M 285.355469 93.015625 L 285.0625 92.960938 L 287.417969 91.921875 L 289.332031 91.101562 L 297.925781 87.453125 C 297.988281 87.457031 298.050781 87.464844 298.109375 87.472656 L 285.355469 93.015625 M 298.910156 87.128906 C 298.859375 87.117188 298.816406 87.105469 298.765625 87.09375 L 308.089844 83.132812 C 308.148438 83.109375 308.203125 83.089844 308.261719 83.066406 L 298.910156 87.128906 M 319.609375 82.988281 L 319.609375 81.835938 C 319.609375 81.015625 319.195312 80.253906 318.515625 79.808594 C 318.214844 79.609375 317.882812 79.484375 317.539062 79.433594 L 317.207031 79.371094 C 320.777344 77.894531 324.351562 76.425781 327.941406 75.011719 C 341.210938 69.671875 354.550781 64.492188 368.078125 59.753906 C 355.347656 66.347656 342.425781 72.496094 329.4375 78.492188 C 326.175781 80.019531 322.894531 81.511719 319.609375 82.988281 " fill-opacity="1" fill-rule="nonzero"/><path fill="#4e2718" d="M 283.210938 98.964844 L 283.210938 97.546875 L 285.175781 97.925781 C 285.304688 97.953125 285.433594 97.964844 285.558594 97.96875 L 283.210938 98.964844 M 285.363281 93.015625 L 285.355469 93.015625 L 298.109375 87.472656 C 298.113281 87.472656 298.109375 87.472656 298.113281 87.472656 L 285.363281 93.015625 M 298.910156 87.128906 L 308.261719 83.066406 C 308.28125 83.058594 308.300781 83.050781 308.316406 83.042969 L 298.910156 87.128906 M 319.207031 83.171875 C 319.511719 82.710938 319.65625 82.148438 319.59375 81.574219 C 319.476562 80.515625 318.6875 79.65625 317.644531 79.453125 L 317.539062 79.433594 C 317.882812 79.484375 318.214844 79.609375 318.515625 79.808594 C 319.195312 80.253906 319.609375 81.015625 319.609375 81.835938 L 319.609375 82.988281 C 319.472656 83.050781 319.339844 83.109375 319.207031 83.171875 " fill-opacity="1" fill-rule="nonzero"/><path fill="#4e2718" d="M 285.558594 97.96875 C 285.433594 97.964844 285.304688 97.953125 285.175781 97.925781 L 283.210938 97.546875 L 277.253906 96.386719 L 285.0625 92.960938 L 285.355469 93.015625 L 285.363281 93.015625 L 298.113281 87.472656 C 299.671875 87.683594 301.230469 87.890625 302.785156 88.09375 C 301.492188 87.765625 300.203125 87.449219 298.910156 87.128906 L 308.316406 83.042969 C 311.285156 81.824219 314.246094 80.597656 317.207031 79.371094 L 317.539062 79.433594 L 317.644531 79.453125 C 318.6875 79.65625 319.476562 80.515625 319.59375 81.574219 C 319.65625 82.148438 319.511719 82.710938 319.207031 83.171875 C 316.109375 84.5625 313 85.953125 309.90625 87.359375 L 290.261719 95.976562 L 285.558594 97.96875 M 285.636719 95.542969 L 286.101562 93.160156 L 285.636719 95.542969 " fill-opacity="1" fill-rule="nonzero"/><path fill="#4e2718" d="M 210.53125 127.738281 C 211.253906 127.363281 211.96875 126.996094 212.6875 126.628906 C 212.738281 126.726562 212.78125 126.824219 212.820312 126.929688 C 212.058594 127.199219 211.292969 127.46875 210.53125 127.738281 " fill-opacity="1" fill-rule="nonzero"/><path fill="#4e2718" d="M 298.109375 87.472656 C 298.050781 87.464844 297.988281 87.457031 297.925781 87.453125 L 298.765625 87.09375 C 298.816406 87.105469 298.859375 87.117188 298.910156 87.128906 L 298.109375 87.472656 " fill-opacity="1" fill-rule="nonzero"/><path fill="#4e2718" d="M 298.113281 87.472656 C 298.109375 87.472656 298.113281 87.472656 298.109375 87.472656 L 298.910156 87.128906 L 298.113281 87.472656 " fill-opacity="1" fill-rule="nonzero"/><path fill="#4e2718" d="M 302.785156 88.09375 C 301.230469 87.890625 299.671875 87.683594 298.113281 87.472656 L 298.910156 87.128906 C 300.203125 87.449219 301.492188 87.765625 302.785156 88.09375 " fill-opacity="1" fill-rule="nonzero"/></svg>